/* XPM */
static char *_312ab41ec594bd3903031ec7263f964OTWWNZ4GJajWyoyx[] = {
/* columns rows colors chars-per-pixel */
"32 32 21 1 ",
"  c None",
". c #193619",
"X c #21571A",
"o c #004525",
"O c #00582D",
"+ c #204B21",
"@ c #006232",
"# c #006533",
"$ c #007C3F",
"% c #2A692D",
"& c #7D544B",
"* c #EB1116",
"= c #CA2C1D",
"- c #FF281B",
"; c #008B45",
": c #00A04F",
"> c #00B357",
", c #00C961",
"< c #FFBF3D",
"1 c #FFDD8B",
"2 c #FFE289",
/* pixels */
"                +               ",
"               +<+              ",
"              +1<1+             ",
"             +<<2<<+            ",
"              +1<1+             ",
"               +<+              ",
"              +,,,+             ",
"            ++,,,,,++           ",
"              %#,#%             ",
"             +::>:>+            ",
"            +,,>,>,,+           ",
"           +,;;;,,,,,+          ",
"          ++=*=,,,,,,++         ",
"           +*-*@;;o%+           ",
"            =*=::::+            ",
"            +,>>>>>,+           ",
"           +,,,,,,,,,+          ",
"          +,;,,,,,;;,,+         ",
"         +,,,;;;,,,=*=,+        ",
"       ++,,,,,,,,,,*-*,,++      ",
"         ++OO$,,,,,=*=.+        ",
"          +:::OO$O$:::X         ",
"         +>>>>:::::>>>+         ",
"        +,,,,>>>>>>>,,,+        ",
"       +,,,,,,,,,,>,,,,,+       ",
"      +,,,,,,,,,,,,,;;;,,+      ",
"   +++,;,,,,,,,,,,;;,,,,,,+++   ",
"    +,,,;;,,,,,,,,,,,,,,,,,+    ",
"     +++,,;;;,,,,,,,,,,,,++     ",
"        ++++,,,,,,,,,++++       ",
"            +++++++++           ",
"               &&&              "
};
