/* XPM */
static char *e680b98532a846199276982b637c01b8zEECouMWqQP0iyg7[] = {
/* columns rows colors chars-per-pixel */
"32 32 52 1 ",
"  c #18330D",
". c #00431B",
"X c #275600",
"o c #234914",
"O c #33691E",
"+ c #005723",
"@ c #006128",
"# c #006429",
"$ c #007C34",
"% c #795548",
"& c #BF360C",
"* c #DD2C00",
"= c #FF3D00",
"- c #008B3A",
"; c #00A042",
": c #00B34A",
"> c #00C853",
", c #FFC400",
"< c #FFE57F",
"1 c #7FB7DA",
"2 c #96AABF",
"3 c #9BACBD",
"4 c #A6AFB9",
"5 c #A1AEBC",
"6 c #ADB2B7",
"7 c #FFE082",
"8 c #8AA6C3",
"9 c #92A9C1",
"0 c #96AAC0",
"q c #84BCDD",
"w c #99BBDD",
"e c #9EBEDF",
"r c #9EBEE0",
"t c #86C0DF",
"y c #89C4E1",
"u c #8DC8E3",
"i c #90CDE4",
"p c #94D3E7",
"a c #A4C2E2",
"s c #AAC5E3",
"d c #B1CBE6",
"f c #B9D0E8",
"g c #C2D6EB",
"h c #C2D6EC",
"j c #CBDCEE",
"k c #CCDDEF",
"l c #D6E3F2",
"z c #D7E4F2",
"x c #E2EBF6",
"c c #E3ECF6",
"v c #F0F5FA",
"b c white",
/* pixels */
"bkvvkgkxfvkcczgfofzkccklzgkkkzzj",
"zdbffvkzggskcbco,okkkcvdggkfdgcg",
"ckfzgfzgckvzslo7,7ogzycrdfgsgekg",
"ffvcjzvkggzggo,,<,,okkzsdggkzfvz",
"kdcv6bzgkccgkfo7,7ofvlccczcgbcgc",
"fgzgzgkggfkbtggo,obczwgkkcvvcgkc",
"kkzckzskkccczfo>>>okzzc5ckczzkzc",
"kzzgcuvcgvkboo>>>>>ookkcckfbgdkz",
"izgkgkczkkz8ccO#>#Odsqczkcvzgzvc",
"cpkzfzckc3czko;;:;:okgzvvfbvcjgv",
"zbbzzvcdgczko>>:>:>>ocxkkcszzkz3",
"zkkkzzcvvhco>--->>>>>ozjdksflzck",
"kcgggvgzgvoo&*&>>>>>>oogczgkvvcf",
"cdk5kgzkkfko*=*@--.Ookzzkkvckcvk",
"c2zzlvcabbkk&*&;;;;ofkikvkzkgk2s",
"czzzdgcbzzczo>:::::>ocklvdckkvzg",
"czfbzdccsvko>>>>>>>>>okzgcggckck",
"gk2ckczzc2o>->>>>>-->>ocgcckkgvd",
"vickfkkdzo>>>--->>>&*&>ocgvvczcz",
"kkztdzkoo>>>>>>>>>>*=*>>ooccdgzd",
"vfgcvgflgoo++$>>>>>&*& ozvcczvz4",
"zkcvdccczco;;;++$+$;;;Xcdkggcbkc",
"gcgzzdkcgo::::;;;;;:::ocvvvckkpk",
"vygfczkgo>>>>:::::::>>>ovcvzkzg5",
"kvukzivo>>>>>>>>>>:>>>>>ozc4gvzv",
"kgzkcco>>>>>>>>>>>>>--->>obvcdzk",
"zcgooo>->>>>>>>>>>-->>>>>>ooovzc",
"czvgo>>>-->>>>>>>>>>>>>>>>>ocgzk",
"9zcvgooo>>--->>>>>>>>>>>>oogzc5v",
"zkzfzbkkoooo>>>>>>>>>ooood0zdczg",
"clccccckkcgvooooooooocdzcgzvkgzz",
"kcgcvgcgfgkccbc%%%kgvcgzzd1szfck"
};
