/* XPM */
static char *result[] = {
/* columns rows colors chars-per-pixel */
"32 32 22 1 ",
"  c black",
". c #191700",
"X c #3F610F",
"o c #426611",
"O c #62971A",
"+ c #67A01B",
"@ c #69A31B",
"# c #6AA41B",
"$ c #6BA51B",
"% c #6DA91C",
"& c #6DAA1C",
"* c #72B11D",
"= c #74B41E",
"- c #75B51E",
"; c #6BA021",
": c #76B520",
"> c #78B828",
", c #7EB631",
"< c #80B736",
"1 c #FFF200",
"2 c #86B842",
"3 c None",
/* pixels */
"33333333333333333333333333333333",
"3333333333333333OOO3333333333333",
"333333333333333OOO33333333333333",
"333333333333----=O--333333333333",
"3333333333---##--##---3333333333",
"3333333333--XX-&%-XX--3333333333",
"3333333333---1.$@.1---3333333333",
"3333333333---1 -- 1---3333333333",
"333333333--+---oo---+--333333333",
"333333333-o----------o-333333333",
"333333333-o----------o-333333333",
"333333333---oooooooo---333333333",
"333333333333333--333333333333333",
"33333333333O33O--O33O33333333333",
"333333333333OOOOOOOO333333333333",
"333333333OOO+OOOOOO+OOO333333333",
"333333333---OO-OO-OO---333333333",
"33333333--O3+------+3O--33333333",
"333333>-233;*------*;33,->333333",
"33333--3333+--------+3333--33333",
"33333<--333@--------@333--<33333",
"3333333:-3+----------+3-:3333333",
"333333333-+----------+-333333333",
"3333333---+----------+---3333333",
"3333333333+----------+3333333333",
"3333333333+----------+3333333333",
"33333333333+--------+33333333333",
"333333333333---33---333333333333",
"333333333333---33---333333333333",
"333333333333---33---333333333333",
"333333333333---33---333333333333",
"33333333-------33-------33333333"
};
