/* XPM */
static char *result[] = {
/* columns rows colors chars-per-pixel */
"32 32 51 1 ",
"  c black",
". c #191700",
"X c #3F610F",
"o c #426611",
"O c #62971A",
"+ c #67A01B",
"@ c #69A31B",
"# c #6AA41B",
"$ c #6BA51B",
"% c #6DA91C",
"& c #6DAA1C",
"* c #72B11D",
"= c #74B41E",
"- c #75B51E",
"; c #6BA021",
": c #76B520",
"> c #78B828",
", c #7EB631",
"< c #80B736",
"1 c #FFF200",
"2 c #86B842",
"3 c #9CAEBE",
"4 c #A7B1BA",
"5 c #A2B0BD",
"6 c #AEB3B8",
"7 c #93ABC2",
"8 c #97ACC0",
"9 c #97ACC1",
"0 c #80B8DB",
"q c #9FBFE0",
"w c #9FBFE1",
"e c #87C1E0",
"r c #8BC5E1",
"t c #8EC9E4",
"y c #92CEE6",
"u c #95D4E8",
"i c #A4C2E2",
"p c #A5C3E3",
"a c #ABC6E4",
"s c #ACC7E5",
"d c #B2CCE7",
"f c #BAD1E9",
"g c #C3D7EC",
"h c #CCDDEF",
"j c #CDDEF0",
"k c #D7E4F2",
"l c #D8E5F2",
"z c #E3ECF6",
"x c #E4EDF6",
"c c #F0F5FA",
"v c white",
/* pixels */
"vjccjgjzfcjxxlgfffljxxjklgjjjllh",
"ldvffcjlggajxvxgOOOjjxcdggjfdgxg",
"xjflgflgxjclakcOOOxglrxwdfgagqjg",
"ffcxhlcjgglg----=O--jjladggjlfcl",
"jdxc6vlgjx---##--##---xxxlxgvxgx",
"fglglgjggf--XX-&%-XX--gjjxccxgjx",
"jjlxjlajjx---1.$@.1---x5xjxlljlx",
"jllgxtcxgc---1 -- 1---jxxjfvgdjl",
"ylgjgjxlj--+---oo---+--ljxclglcx",
"xujlflxjx-o----------o-ccfvcxhgc",
"lvvllcxdg-o----------o-jjxalljl3",
"ljjjllxcc---oooooooo---hdjafklxj",
"jxgggcglgcggxxl--jxfxgjgxlgjccxf",
"xdj5jgljjfjOjfO--OjjOjlljjcxjxcj",
"x8llkcxpvvjjOOOOOOOOfjyjcjljgj8a",
"xllldgxvlOOO+OOOOOO+OOOkcdxjjclg",
"xlfvldxxa---OO-OO-OO---lgxggxjxj",
"gj8xjxll--Oj+------+jO--gxxjjgcd",
"cyxjfj>-2cl;*------*;dg,->ccxlxl",
"jjled--vrxf+--------+cjjl--xdgld",
"cfgxc<--glc@--------@jxx--<xlcl4",
"ljxcdxx:-x+----------+x-:jggxvjx",
"gxglldjxg-+----------+-xcccxjjuj",
"crgfxlj---+----------+---xcljlg5",
"jctjlyclfi+----------+lxylx4gclc",
"jgljxxsgxj+----------+cldjvcxdlj",
"lxgfjvvgfxl+--------+jxxgpjcgclx",
"xlcgfcgfajlj---fl---fgltjlgcxglj",
"7lxcgcfxxllx---cf---xxxjxxxglx5c",
"ljlflvjjjlfx---7l---xkxvxd9ldxlg",
"xkxxxxxjjxgc---cg---xxdlxglcjgll",
"jxgxcgxg-------tl-------ld0alfxj"
};
