/* XPM */
static char *_24d8f7b0c904bcfbd46f5d46346a56byGavlOu1tOjGE1u0[] = {
/* columns rows colors chars-per-pixel */
"32 32 25 1 ",
"  c None",
". c #7B3311",
"X c #45302B",
"o c #503731",
"O c #523632",
"+ c #61413B",
"@ c #714C44",
"# c #A93416",
"$ c #CA2C1D",
"% c #FF281B",
"& c #AF471A",
"* c #F4471E",
"= c #FD6325",
"- c #0093E4",
"; c #00B2FA",
": c #B68B83",
"> c #89A1AA",
", c #8AA3AD",
"< c #89A2AF",
"1 c #90A1B0",
"2 c #FFC9BC",
"3 c #C0CFD0",
"4 c #C8CED4",
"5 c #D9DADB",
"6 c #DFDFDF",
/* pixels */
"                         <<<    ",
"                        <  <    ",
"                       <        ",
"                       << <<    ",
"                        << 36   ",
"                     <   6 < <  ",
"                     <<61  <3<< ",
"                   < <<<6<44 < <",
"                    1 4<<<      ",
"                     63>        ",
"                      1<        ",
"                   4<33         ",
"                    6 5<<       ",
"                    < 3         ",
"                   $            ",
"                   $            ",
"                                ",
"          %%%%%%%%%%%           ",
"          %&*=*=*=**%           ",
"         %2%&*=*=*=%2%          ",
"        %2;2%.*=*=*2-2%         ",
"        %2-2%#&*=*=2;2%         ",
"     % %22222%#&*=*2222% %      ",
"      %O$$$$O$$$$$$$$$$O%       ",
"       $:::2$::::22:::2$        ",
"       $:-;2$:-;-;2:;-2$        ",
"       $2;-2$2;-;-22-;2$        ",
"       $2222$2222222222$        ",
"       O$$$$O$$$$$$$$$$O        ",
"       $:::2$::XO22:::2$        ",
"       $:222$:2@+22:222$        ",
"       $2222$22+@222222$        "
};
