/* XPM */
static char *_a8f97d7b0714e05ad43987c9f283ddeT55pa3FzkX1Ow7ZA[] = {
/* columns rows colors chars-per-pixel */
"32 32 165 2 ",
"   c #796045",
".  c #960E2F",
"X  c #971927",
"o  c #961529",
"O  c #9C172D",
"+  c #961829",
"@  c #9D192D",
"#  c #980730",
"$  c #9C1631",
"%  c #9C1931",
"&  c #BE042D",
"*  c #A5172F",
"=  c #A31B2C",
"-  c #B8272C",
";  c #B62336",
":  c #BF263B",
">  c #C3263D",
",  c #C62B39",
"<  c #CB2A3E",
"1  c #DB213E",
"2  c #B04630",
"3  c #CE4B39",
"4  c #D34A3A",
"5  c #D75C3A",
"6  c #DD7A36",
"7  c #E4773E",
"8  c #B62A47",
"9  c #BE2C43",
"0  c #C30046",
"q  c #C91544",
"w  c #CC2744",
"e  c #C72E42",
"r  c #CC2A42",
"t  c #CD234C",
"y  c #DC2241",
"u  c #048334",
"i  c #018937",
"p  c #008F3D",
"a  c #009236",
"s  c #0A9037",
"d  c #01923B",
"f  c #00A93E",
"g  c #7FC32E",
"h  c #038547",
"j  c #048C41",
"k  c #019F49",
"l  c #1C954E",
"z  c #01A546",
"x  c #03AE46",
"c  c #02A649",
"v  c #00AB4A",
"b  c #01B14E",
"n  c #0FB44C",
"m  c #13B54D",
"M  c #00AE53",
"N  c #00B151",
"B  c #0DB152",
"V  c #41C148",
"C  c #AE9908",
"Z  c #B69814",
"A  c #BC9915",
"S  c #BAA111",
"D  c #ED9C0D",
"F  c #FF9F01",
"G  c #EFAC06",
"H  c #FBA605",
"J  c #F5A904",
"K  c #F9A905",
"L  c #F4A709",
"P  c #F6A609",
"I  c #FCA50B",
"U  c #FCA808",
"Y  c #F7B006",
"T  c #FBB104",
"R  c #FFBF06",
"E  c #FBBF09",
"W  c #E2BE12",
"Q  c #DE8036",
"!  c #DE813B",
"~  c #E7812F",
"^  c #E1833B",
"/  c #E8A62B",
"(  c #D6C51F",
")  c #FBC604",
"_  c #F3D307",
"`  c #FBD504",
"'  c #F7DB01",
"]  c #FBD903",
"[  c #F7D10A",
"{  c #FED209",
"}  c #FBDC0D",
"|  c #E6CE16",
" . c #F3C915",
".. c #F5CE19",
"X. c #E3F31F",
"o. c #ECF01F",
"O. c #F1F61E",
"+. c #F5F91C",
"@. c #FBFD1A",
"#. c #D9E03B",
"$. c #E6EE27",
"%. c #EDEF26",
"&. c #EDEE2A",
"*. c #F2E622",
"=. c #F2ED26",
"-. c #F1EF29",
";. c #EDF224",
":. c #EEFB27",
">. c #EEF22A",
",. c #F2F324",
"<. c #FDF324",
"1. c #F3FF26",
"2. c #FEFD22",
"3. c #F2F22B",
"4. c #FDF429",
"5. c #F4FF29",
"6. c #F8FF2A",
"7. c #F2EC32",
"8. c #EEF630",
"9. c #F0F036",
"0. c #96AABF",
"q. c #9DACBB",
"w. c #A3AEBB",
"e. c #ADB2B7",
"r. c #8AA6C3",
"t. c #82B3CB",
"y. c #99BBDD",
"u. c #A5B8CF",
"i. c #AABDCD",
"p. c #ACBDD1",
"a. c #A1BEDC",
"s. c #9EBEE0",
"d. c #86C0DF",
"f. c #8DC9DF",
"g. c #B4C3D3",
"h. c #BCC6D9",
"j. c #BDC8D8",
"k. c #8CC6E2",
"l. c #91CDE5",
"z. c #94D3E7",
"x. c #ABC6E2",
"c. c #B2CBE5",
"v. c #B9CFE2",
"b. c #BDD1E6",
"n. c #B9D0E8",
"m. c #C7CFDA",
"M. c #C8CFDA",
"N. c #CDD8D0",
"B. c #C6D0DB",
"V. c #C8D0DA",
"C. c #D1D7DD",
"Z. c #C2D6EB",
"A. c #C8D7EA",
"S. c #C7D8E9",
"D. c #CCDDEE",
"F. c #D6D9E5",
"G. c #DCDCE1",
"H. c #D2DEED",
"J. c #D7E4F2",
"K. c #DDE7F0",
"L. c #E1E8EE",
"P. c #E3ECF6",
"I. c #EAEFF4",
"U. c #F0F5FA",
"Y. c #FFFFFF",
/* pixels */
"Y.D.U.U.D.Z.D.P.n.U.D.P.P.J.Z.n.n.n.J.D.P.P.D.J.J.>.;.D.&.>.J.D.",
"J.c.Y.n.n.U.D.J.Z.Z.x.D.P.Y.P.Z.U.U.D.D.D.P.U.c.Z.A C A Z A P.Z.",
"P.D.n.J.Z.n.J.Z.P.D.U.J.x.J.U.P.D.P.P.Z.J.k.P.s.b N m >.b N N Z.",
"n.n.U.P.D.J.U.D.Z.Z.J.Z.Z.P.J.Z.x.J.P.J.D.D.J.x.N N m 7.N N N J.",
"D.c.P.U.e.Y.J.Z.D.P.P.Z.D.n.d d N N P.n.U.J.P.P.j d s A d p d P.",
"n.Z.J.Z.J.Z.D.Z.Z.n.D.Y.d.Z.d p p p Y.P.J.y.Z.D.S.N B 8.a p D.P.",
"D.D.J.P.D.J.x.D.D.P.P.P.J.n.D.w w w n.S.j.;.( w.P.N n >.p p J.P.",
"D.J.J.Z.P.k.U.P.Z.U.D.Y.J.U.a p p p j.b.j.2.S.M.M.N n >.p p D.J.",
"l.J.Z.D.Z.D.P.J.D.D.J.r.P.d c z z z v b O.5.A S S.N n >.p p U.P.",
"P.z.D.J.n.J.P.D.P.q.P.J.j p z N N N e r r w < r w y n >.p i Z.U.",
"J.Y.Y.J.J.U.P.c.Z.P.J.p p c M N N N = o X + + @ * & B >.u h :.6.",
"J.D.D.D.J.J.P.U.U.Z.P.p z z N N N N N 1 r r ; @ O M B >.>.8.K D.",
"D.P.Z.Z.Z.U.Z.J.Z.U.Z.j k N N N N N N 1 r r ; # . >.3.K K I P.n.",
"P.c.D.w.D.Z.J.>.>.9.g >.X.4.N N N N N y < t - $.3.K H H H K U.D.",
"P.0.J.J.J.U.P.%.G.F.,.>.k <.N N N N N y q 0 ;.J H K H H H T 0.x.",
"P.J.J.J.c.Z.P.^ Q 6 / %.! ~     N N N /  ...J K R ) E ` ` U.J.Z.",
"P.J.n.Y.J.c.< r w 3 7 =.r r r w N N V *.K K Y Y { ` ` _ W D.P.D.",
"Z.D.0.>.-.P.O + O 6.O . 5.$ + + N N T H U ] ] ` ` ` [ ` D.Z.U.c.",
"U.l.P.} } #.8 > > 5 > : 2 @ = l N N Y H ) ` ` ` ` ` ` U.P.J.P.J.",
"D.D.J.` ` +.9 r r r r r @ @ @ v c 4.F ] ` ` ` ` ` ` ` P.c.Z.J.c.",
"U.n.Z.H ` ` 4 , r r r r @ @ @ v f >.` ` ` ` ` ` ` ` ] P.J.U.J.w.",
"J.D.P.K ` { =.t r r r r @ @ @ x <.H ` ` ` ` ` ` ` ` | Z.P.Y.D.P.",
"Z.P.Z.J.H ] ` :.e w w w % % % d ;.H ` ` ` ` ` ` ` ` _ P.D.D.z.D.",
"2.2.2.2.K I { ` 6.1.1.1.5.5.5.<.F ` ` ` ` ` ` ` ` H U.J.D.J.Z.w.",
">.C.t.>.J.K ` ` ` ` ` ` ` ` ` ` ' ' ` ` ` ` ` P G j.P.w.Z.U.J.U.",
"-.b.h.O.P.B.U H H H H H H H H H H H H H H U H P x.D.Y.U.P.c.J.D.",
"-.K.;.>.D.Y.D K K K K K K K K K K K K K K I L.P.b.a.D.U.Z.U.J.P.",
"-.J.U.Z.n.I.=.-.-.-.-.-.-.-.-.-.-.-.-.-.-.>.O.>.=.@.Z.U.P.Z.J.D.",
"=.<.K.I.>.>.i.P.P.H.N.V.m.p.g.,.u.j.x.f.,.K.M.g.M.&.$.Z.J.P.w.U.",
"J.;.H.,.;.Y.D.D.D.-.v.P.H.K.q.>.H.Z.J.P.&.2.K.Y.P.c.-.j.c.P.>.Z.",
"P.J.-.3.P.P.P.D.A.@.Z.I.u.G.m.>.p.c.S.B.P.2.x.J.P.Z.H.&.S.Z.&.J.",
"D.P.2.3.&.&.&.&.o.3.&.&.&.&.>.&.&.&.&.&.%.%.&.&.&.&.3.3.%.&.>.D."
};

