/* XPM */
static char *result[] = {
/* columns rows colors chars-per-pixel */
"32 32 188 2 ",
"   c #0D0D0D",
".  c #100B0D",
"X  c #1D1705",
"o  c #1F1902",
"O  c #1F1909",
"+  c #151515",
"@  c #1D1613",
"#  c #161B16",
"$  c #1A1A16",
"%  c #1B1719",
"&  c #141C1B",
"*  c #1A1A1A",
"=  c #171718",
"-  c #0D0A1C",
";  c #350F09",
":  c #3A0D0C",
">  c #390801",
",  c #2B120C",
"<  c #211504",
"1  c #31110D",
"2  c #3A180C",
"3  c #3D0F14",
"4  c #241413",
"5  c #2C1411",
"6  c #21191C",
"7  c #381212",
"8  c #2C2007",
"9  c #292412",
"0  c #1C1821",
"q  c #0F2622",
"w  c #022C23",
"e  c #0D2921",
"r  c #032F28",
"t  c #0B2F2A",
"y  c #112622",
"u  c #0D342B",
"i  c #073327",
"p  c #12322B",
"a  c #123027",
"s  c #252525",
"d  c #363637",
"f  c #430A01",
"g  c #400500",
"h  c #550D03",
"j  c #531105",
"k  c #52130B",
"l  c #400F11",
"z  c #421511",
"x  c #411811",
"c  c #44161A",
"v  c #43190C",
"b  c #640A00",
"n  c #761B0E",
"m  c #7C200F",
"M  c #652917",
"N  c #7F211D",
"B  c #782923",
"V  c #144C3D",
"C  c #00553F",
"Z  c #0D513F",
"A  c #7A6535",
"S  c #0F4D42",
"D  c #015642",
"F  c #0B5142",
"G  c #015B44",
"H  c #005E4A",
"J  c #085C43",
"K  c #006146",
"L  c #00614A",
"P  c #006C54",
"I  c #036E5B",
"U  c #007A5A",
"Y  c #087A5F",
"T  c #227B5E",
"R  c #067A61",
"E  c #1C7765",
"W  c #227F6F",
"Q  c #851E1A",
"!  c #8C1D1C",
"~  c #941A15",
"^  c #941C1B",
"/  c #991E1B",
"(  c #9C1C13",
")  c #9B1606",
"_  c #AD190E",
"`  c #AE140B",
"'  c #B51409",
"]  c #BC1708",
"[  c #AD1712",
"{  c #A41C15",
"}  c #AC1915",
"|  c #A71917",
" . c #B01615",
".. c #B01915",
"X. c #BC1A12",
"o. c #99211E",
"O. c #962418",
"+. c #8D361D",
"@. c #B53A1D",
"#. c #841F21",
"$. c #832320",
"%. c #972021",
"&. c #BF3B23",
"*. c #C1160C",
"=. c #C21707",
"-. c #C01A16",
";. c #CE341D",
":. c #D2341E",
">. c #D1391B",
",. c #D9311C",
"<. c #FD330E",
"1. c #EE2E1E",
"2. c #F62F13",
"3. c #FD2F12",
"4. c #EC321D",
"5. c #E73415",
"6. c #F43313",
"7. c #FD3314",
"8. c #F4351B",
"9. c #FC341A",
"0. c #CB3A25",
"q. c #C63925",
"w. c #D23622",
"e. c #D83C27",
"r. c #E73724",
"t. c #B3422C",
"y. c #AA4135",
"u. c #806030",
"i. c #C4452F",
"p. c #DA432A",
"a. c #D74329",
"s. c #CF5137",
"d. c #E14128",
"f. c #8D7B44",
"g. c #907C46",
"h. c #917D49",
"j. c #E25947",
"k. c #D57362",
"l. c #E67E6D",
"z. c #0A876A",
"x. c #058A6A",
"c. c #0A8A6C",
"v. c #0F8166",
"b. c #158B6E",
"n. c #02946E",
"m. c #098E70",
"M. c #168B72",
"N. c #188B72",
"B. c #019472",
"V. c #099171",
"C. c #22836A",
"Z. c #288676",
"A. c #94875C",
"S. c #BE9D49",
"D. c #A38C57",
"F. c #BFA04F",
"G. c #B29C67",
"H. c #C19E4F",
"J. c #C49F50",
"K. c #C2A14C",
"L. c #C4A65D",
"P. c #C4A454",
"I. c #E28068",
"U. c #FC866F",
"Y. c #E28174",
"T. c #FF8870",
"R. c #C7AE6F",
"E. c #E7C96F",
"W. c #E9C96E",
"Q. c #E4C26C",
"!. c #E9C971",
"~. c #EAC974",
"^. c #CAB986",
"/. c #E7D386",
"(. c #EAD48B",
"). c #E8D287",
"_. c #FFCDBC",
"`. c #FFCBC3",
"'. c #E6DBD6",
"]. c #DCE0DE",
"[. c #FFE8DB",
"{. c #FFF0E5",
"}. c #FFF2EE",
"|. c #FFF6F3",
" X c #FFFBF7",
".X c #FEFBFB",
"XX c #E4E8E8",
"oX c None",
/* pixels */
"oXoXoXoXoXoXoX* * *   oXoXoXoXoXoXoXoXoXoX  $ * * oXoXoXoXoXoXoX",
"oXoXoXoXoXs > p.d.d.y.+ oXoXoXoXoXoXoXoX+ y.p.d.p.> s oXoXoXoXoX",
"oXoXoXoXoXB m l.I.5.,.n oXoXoXoXoXoXoXoXn k.l.l.3.) B oXoXoXoXoX",
"oXoXoXoX* &.i. X X>.7.7.5 oXoX+ 4 oXoX, 7._. X|.6.7.q.* oXoXoXoX",
"oXoXoXoXy XX[.7.9.7.7.7.<.z $ .X6.: z 9.7.7.7.7.7.7.0.0 oXoXoXoX",
"oX  # & 6 q.6.7.7.f 4 @ @ q.8.5.7.9.0.4 @ 4 g 3.7.9.q.% * $ - oX",
"d ^.R.R.0 0.8.X.] / Q ! 6 c b <.7.h v 6 ! Q ~ X.X.8.&.y D.R.^.d ",
"* (.~.~.9 t.e. .[ [ { o.1 , f e.e.f 1 1 / { [ [ ..e.&.9 S.Q.).* ",
"* (.~.W.S., ; } } } $.* { } o.* + %.| | = N } } } : 8 K.W.W./.9 ",
"* (.~.E.W.P.G.O & & z ....1 o K.K.X , [ } 3 * * * G.P.W.W.W./.& ",
"* (.E.!.~.~.~.L.L.X k 9.9.v < H.K.< v 6.9.k < L.L.~.!.!.!.!./.$ ",
"* A.g.f.f.h.h.A A M +.U.9.x @ A A < z 7.7.O.M A A f.A.u.f.f.A.0 ",
"+ * * & & & $ % 5 q.s.|.9.x * 4 4 * 3 7.5.8.a., % & & & & & # + ",
"oX. e G G G V % 7.}.`.7.7.v ; } } 1 v 8. Xj.7.8.* V D J G e   oX",
"oX  p B.B.B.W # = a.2.2.4 ! ` 9._ r.0.4 2.<.a.@ % C.B.B.B.p   oX",
"oX. e K K K J S V 2 j j @ q.4.*.4.=.{ * j j 2 E W b.x.L L e   oX",
"oX  e G D D D D D w w r * w.8.] 7.=.{ # r r i x.c.c.v.D D q   oX",
"oX  e D D G D D C D L n.& ;.6.3.6.7.:.# n.B.M.G D C D D D q   oX",
"oX  e D D D G B.n.B.B.n.* ].{.7..Xd.w.* D D D C G C D D D q   oX",
"oX  a V.V.V.B.B.B.B.B.B.* @.i.}.5.[.'.* G C C C D D G m.V.t   oX",
"oX  p B.B.B.B.B.B.B.x.I # w.4.T.7.U.Y.& D C C U U U R B.B.u - oX",
"oX  u B.B.B.B.V.V.V.z.D * ;.7.7.7.7.w.& J D G B.B.B.B.B.B.u   oX",
"oX  u n.B.B.b.D C D D D # :.7.7.7.7.:.& n.B.B.B.B.B.B.B.B.u   oX",
"oX  e D D C C D D D D G * :.7.7.7.7.:.* n.n.B.B.B.B.c.D G q   oX",
"oX  q G C D D D G D H x.# ( ] 7.' 9.>.& n.n.m.G H G G D D q   oX",
"oX  e G C D J G K G P B.# ( *.1.] 5.q.0 x.c.M.D D G D D D e   oX",
"oX  e G C G L V.B.B.B.B.& w.4.[ 9.' ~ # D C C D D D D D D e   oX",
"oX  p B.B.B.B.B.B.B.B.B.& ^ ] 7.[ 9.;.% D C C D D D H B.n.u   oX",
"oX  u B.B.B.B.B.B.B.c.D * ! [ ` [ _ ~ & D D G n.V.B.B.B.B.u   oX",
"oX  u B.n.B.V.P P P P D & ^ [  .[  .^ & Y Y Y B.B.B.B.B.B.u   oX",
"oX  a M.N.N.Z.D S F F F * $.o.o.%.o.B & b.N.N.N.M.N.M.N.N.p   oX",
"oX  * % * * * * * * * * % % * * * * % * = * * % * * % * % *   oX"
};
