/* XPM */
static char *result[] = {
/* columns rows colors chars-per-pixel */
"16 16 201 2 ",
"   c #110E06",
".  c #120F08",
"X  c #150E08",
"o  c #1F0F0B",
"O  c #121109",
"+  c #121208",
"@  c #14110A",
"#  c #1E150A",
"$  c #1F120E",
"%  c #071D18",
"&  c #061F18",
"*  c #071D1B",
"=  c #0A1D19",
"-  c #081E19",
";  c #0A1F1A",
":  c #0C1E18",
">  c #0C1F18",
",  c #0F1D1A",
"<  c #101010",
"1  c gray7",
"2  c #151616",
"3  c #151916",
"4  c #191912",
"5  c #1C1917",
"6  c #1D1619",
"7  c #171A1A",
"8  c #161B1C",
"9  c #111E1D",
"0  c #1F191A",
"q  c #1D1C1C",
"w  c #27090A",
"e  c #2A0F09",
"r  c #290F0C",
"t  c #2B0E0C",
"y  c #2F0F0C",
"u  c #300D0B",
"i  c #22150B",
"p  c #22120D",
"a  c #21140E",
"s  c #2B120A",
"d  c #2C100B",
"f  c #2E100A",
"g  c #221610",
"h  c #221613",
"j  c #261413",
"k  c #261513",
"l  c #261314",
"z  c #211415",
"x  c #221414",
"c  c #221715",
"v  c #231715",
"b  c #211517",
"n  c #211619",
"m  c #261618",
"M  c #321310",
"N  c #062720",
"B  c #0B2422",
"V  c #51140B",
"C  c #52140D",
"Z  c #571413",
"A  c #561414",
"S  c #6E1D1A",
"D  c #6F1D1D",
"F  c #0C4F3C",
"G  c #104D3C",
"H  c #05533F",
"J  c #0D4D40",
"K  c #114D40",
"L  c #065242",
"P  c #015540",
"I  c #005541",
"U  c #035441",
"Y  c #005640",
"T  c #015640",
"R  c #005641",
"E  c #005741",
"W  c #035442",
"Q  c #025443",
"!  c #005642",
"~  c #015642",
"^  c #005742",
"/  c #015643",
"(  c #005743",
")  c #015743",
"_  c #025743",
"`  c #045642",
"'  c #005644",
"]  c #005842",
"[  c #005A44",
"{  c #035B47",
"}  c #005C46",
"|  c #005D47",
" . c #035B48",
".. c #0B7A5E",
"X. c #047D64",
"o. c #057E64",
"O. c #0C7C65",
"+. c #0D7F65",
"@. c #AC1606",
"#. c #AC1A0F",
"$. c #B3130D",
"%. c #B1130F",
"&. c #AD1613",
"*. c #AE1716",
"=. c #A71B14",
"-. c #AB1810",
";. c #AF1913",
":. c #AA1819",
">. c #B91412",
",. c #B01814",
"<. c #8C211B",
"1. c #8B2324",
"2. c #B73620",
"3. c #B73423",
"4. c #B23923",
"5. c #B83629",
"6. c #C51A0C",
"7. c #E32D1A",
"8. c #ED3516",
"9. c #EF371A",
"0. c #E13C1B",
"q. c #E63E1F",
"w. c #EF391D",
"e. c #F63515",
"r. c #F73617",
"t. c #FD3113",
"y. c #FF3314",
"u. c #FE3315",
"i. c #FF3116",
"p. c #F93516",
"a. c #F93616",
"s. c #FE3414",
"d. c #F03817",
"f. c #F2361B",
"g. c #F3361B",
"h. c #F73419",
"j. c #F4371D",
"k. c #F7361C",
"l. c #FE3519",
"z. c #FA331D",
"x. c #F2381A",
"c. c #F2381F",
"v. c #C0392B",
"b. c #D93823",
"n. c #EC3A20",
"m. c #D54627",
"M. c #DA4227",
"N. c #8A7047",
"B. c #8A7247",
"V. c #068467",
"C. c #0E8166",
"Z. c #118365",
"A. c #118E6F",
"S. c #01926F",
"D. c #00936F",
"F. c #07916E",
"G. c #00946E",
"H. c #00946F",
"J. c #08916E",
"K. c #108F74",
"L. c #009371",
"P. c #039270",
"I. c #029370",
"U. c #039372",
"Y. c #049270",
"T. c #069172",
"R. c #009471",
"E. c #009572",
"W. c #009773",
"Q. c #009474",
"!. c #009574",
"~. c #029774",
"^. c #099171",
"/. c #0A9271",
"(. c #0C9370",
"). c #0D9372",
"_. c #0A9376",
"`. c #0C9174",
"'. c #BB9B49",
"]. c #BC9B48",
"[. c #BF9D4D",
"{. c #C4A054",
"}. c #C1A35F",
"|. c #C4A05C",
" X c #C7A15C",
".X c #D8BA6A",
"XX c #DAB96E",
"oX c #E8C96E",
"OX c #E1C570",
"+X c #E2C570",
"@X c #E2C671",
"#X c #E4C673",
"$X c #E7C873",
"%X c #E8C872",
"&X c #F9C7BB",
"*X c #FFE0D3",
"=X c #FFE4D9",
"-X c #FFF4EC",
";X c #FFF4F0",
":X c #FEFEFF",
">X c None",
/* pixels */
">X>X>Xt f >X>X>X>X>X>Xu w >X>X>X",
">X>Xe ;X-Xh.3 1 < 2 0.:Xu.M >X>X",
">X>Xz 8.a.3.4.&Xk.5.2.r.i.y >X>X",
"O $Xs %.&.-.0 d.x.5 ;.,.$.d [.  ",
"@ %XXXV Z S :.B.N.=.D A C .XoX. ",
"+ #X@X'. Xq.f.|.{.j.n.}.].+XOXX ",
">XK J 7 v.m.g.1.<.c.*Xb.8 F G >X",
">X).S.B o w.c z.>.m 9.# N P.(.>X",
">XU ~ ~ W A.p e.t.i K.( R ) L >X",
">X{ | Y.E.D.4 M.=X$ E Y P }  .>X",
">X^.E.Q.!.^ g p.s.j U F.I.E._.>X",
">XO.o.] T ! a y.s.l H.E.E.X...>X",
">X` ~ ^ ^ T.n l.@.b G.[ ^ _ H >X",
">XC.V.U.R.R.h 7.6.k Q I / +.Z.>X",
">X/.E.~.L.' x *.#.v ! J.I.W.`.>X",
">X% * 9 , > 6 r r q & = - ; : >X"
};
