/* XPM */
static char *result[] = {
/* columns rows colors chars-per-pixel */
"32 32 225 2 ",
"   c #0C0007",
".  c #130002",
"X  c #15020C",
"o  c #190309",
"O  c #040214",
"+  c #0D0215",
"@  c #030C15",
"#  c #04051D",
"$  c #0C051C",
"%  c #020B1C",
"&  c #0A091C",
"*  c #0B0B15",
"=  c #130214",
"-  c #120A13",
";  c #14051C",
":  c #1C021D",
">  c #140B1D",
",  c #1C0815",
"<  c #021218",
"1  c #18101B",
"2  c #220005",
"3  c #25020F",
"4  c #390109",
"5  c #260618",
"6  c #360619",
"7  c #39101A",
"8  c #030623",
"9  c #020E22",
"0  c #080B24",
"q  c #03042A",
"w  c #030C2A",
"e  c #0C0727",
"r  c #12062C",
"t  c #1A0925",
"y  c #001125",
"u  c #101129",
"i  c #0A0634",
"p  c #280625",
"a  c #380426",
"s  c #220732",
"d  c #3B0933",
"f  c #381332",
"g  c #45041E",
"h  c #580219",
"j  c #4C0507",
"k  c #66000B",
"l  c #6C021C",
"z  c #670718",
"x  c #72041B",
"c  c #7D141A",
"v  c #4A092A",
"b  c #550423",
"n  c #5E0424",
"m  c #481621",
"M  c #420D31",
"N  c #56093D",
"B  c #471234",
"V  c #581A37",
"C  c #620227",
"Z  c #6C0225",
"A  c #650429",
"S  c #69072B",
"D  c #730327",
"F  c #690635",
"G  c #7A0338",
"H  c #761639",
"J  c #7E1227",
"K  c #562632",
"L  c #743232",
"P  c #36375B",
"I  c #36366B",
"U  c #4A0E40",
"Y  c #6E094C",
"T  c #7A1445",
"R  c #443B4C",
"E  c #3D435D",
"W  c #39416C",
"Q  c #5A4C59",
"!  c #6C615F",
"~  c #495766",
"^  c #664E7B",
"/  c #556378",
"(  c #64727E",
")  c #900D1B",
"_  c #A80818",
"`  c #A4101E",
"'  c #8B0629",
"]  c #9C0829",
"[  c #8E0D3C",
"{  c #8A0E33",
"}  c #940C33",
"|  c #91093E",
" . c #9C0639",
".. c #871637",
"X. c #9D133B",
"o. c #811C2D",
"O. c #A40424",
"+. c #A2052D",
"@. c #AA0B2A",
"#. c #A80528",
"$. c #A81928",
"%. c #A50333",
"&. c #A40732",
"*. c #B60239",
"=. c #B8122B",
"-. c #B42B2F",
";. c #CC1F1D",
":. c #E63C1C",
">. c #EB3C1C",
",. c #E93718",
"<. c #F1351B",
"1. c #F33C1C",
"2. c #F13714",
"3. c #E62C11",
"4. c #C91D28",
"5. c #C81F30",
"6. c #D2192E",
"7. c #C92328",
"8. c #D83B33",
"9. c #D72C29",
"0. c #E63A24",
"q. c #EB3C23",
"w. c #E33D29",
"e. c #E63526",
"r. c #F43829",
"t. c #E43B33",
"y. c #E53835",
"u. c #F33A34",
"i. c #ED411D",
"p. c #DC422B",
"a. c #DA433B",
"s. c #DE4435",
"d. c #C2473F",
"f. c #E94427",
"g. c #F24229",
"h. c #E74130",
"j. c #981844",
"k. c #900B4B",
"l. c #AB0943",
"z. c #D63A45",
"x. c #D73A52",
"c. c #92464C",
"v. c #B94A43",
"b. c #8F6B77",
"n. c #B47474",
"m. c #CD4F43",
"M. c #DC4942",
"N. c #F0425C",
"B. c #C47170",
"V. c #A88B77",
"C. c #A88463",
"Z. c #DB8E7F",
"A. c #C48870",
"S. c #46588B",
"D. c #775E94",
"F. c #5B6483",
"G. c #686A88",
"H. c #736688",
"J. c #727490",
"K. c #7B7AA9",
"L. c #B15780",
"P. c #8E7894",
"I. c #B27F88",
"U. c #9A7EAA",
"Y. c #7F838D",
"T. c #7E8EAC",
"R. c #7E93BE",
"E. c #9A8885",
"W. c #959294",
"Q. c #A98A86",
"!. c #A68D96",
"~. c #8986AA",
"^. c #9484AD",
"/. c #8787B9",
"(. c #9193AE",
"). c #BD9BA8",
"_. c #E69098",
"`. c #C0BA9F",
"'. c #F3BD9F",
"]. c #C093B1",
"[. c #C488A3",
"{. c #D2B7A5",
"}. c #FBAEA0",
"|. c #F5B6AA",
" X c #EEB2B2",
".X c #EDBCA1",
"XX c #D4CDBE",
"oX c #979FC3",
"OX c #B2B0CB",
"+X c #BBD4DB",
"@X c #BDD3F5",
"#X c #BEDDF1",
"$X c #BFD5EB",
"%X c #CFD1DF",
"&X c #C0C1DA",
"*X c #D2C8E7",
"=X c #C6D8E9",
"-X c #D5D5E2",
";X c #D2DBE6",
":X c #D4CBF4",
">X c #C2D3F2",
",X c #C3DBF2",
"<X c #C7D6FF",
"1X c #CAD7F9",
"2X c #D3D9FA",
"3X c #CDCEFA",
"4X c #D0E0EC",
"5X c #D9E8F7",
"6X c #FFF4EC",
"7X c #FDF8E8",
"8X c #E6E9F7",
"9X c #FAECFF",
"0X c #ECF5FF",
"qX c #E6FDFF",
"wX c #EDFDFF",
"eX c #EAF9F8",
"rX c #FEF3F3",
"tX c #FDFEF5",
"yX c #F3F3FD",
"uX c #FEF5FD",
"iX c #F4FDFE",
"pX c #FDFDFD",
"aX c #F6FCF4",
"sX c #E1E3EC",
"dX c None",
/* pixels */
"dXdXdXdXdXdXdXdXdXdXdXdX> + - t - dXdXdXdXdXdXdXdXdXdXdXdXdXdXdX",
"dXdXdXdXdXdXdXdXdXe t a H 8.p.s.+.a ; dXdXdXdXdXdXdXdXdXdXdXdXdX",
"dXdXdXdXdXdXo o 4 X.7.i.1.1.2.<.e._ j.5 dXdXdXdXdXdXdXdXdXdXdXdX",
"dXdXdX+ ; 5 ..} X.x.8.0.2.<.r.r.>.:.8...: t dXdXdXdXdXdXdXdXdXdX",
"dXdXr T [ } %.@._ r.<.f.e.@.] O.w.3.u. .l.S X dXdXdXdXdXdXdXdXdX",
"dXdXs [ #.@.%.6.>.1.u.N.O.%.] _ y.w.a.` } H K 3 dXdXdXdXdXdXdXdX",
"dXdX8 S _ *.%.4.,.:.4.O.l %.*.5.*.B.A.}.7XrXrX!.Q t dXdXdXdXdXdX",
"dXdX& f Z %.%.4.q.8.$.h b .... X6XrXtXrXtXrXtXpXY.% dXdXdXdXdXdX",
"dXdXdXO v k.*.6.t.` x m Q.rXrXrX7X{..X'.C.Q.!.; & # dXdXdXdXdXdX",
"dXdXdX# p A X.=.s.k c.Q.3 B v N g m 7 , O i q G.P r dXdXdXdXdXdX",
"dXdXdX$ R V.n.c.z h 1 < (.4X*XuXpXpXpXwX,X>X1XiX&XU.& dXdXdXdXdX",
"dXdX+ Q.`.7XC.V.V.u G.,XqXiXiXaXtXtXtXpX0X0X>X>X5XiXu dXdXdXdXdX",
"dXdX# W.`.7X7XXXW.G.oX$X=XiXiXiXtXtXtXiX-X5XwX,X5XwX8 dXdXdXdXdX",
"dXdX& E.!.Q.V.Q i @X8XpXpXpXpXtXtXpXpXpXpX8X=X=X,X$XT.E & dXdXdX",
"dXdXdXO < y % Q (.9XuXpXpXpXtXtXpXiXpXpXpXiXiXwXqXqX@XF.$ dXdXdX",
"dXdXdX$ P T.2XsXaXiXiXiXpXaXpXiXiXiXiXiXiXiXiXwX5X<X@XF.e dXdXdX",
"dXdXdXw S.<XyXuXaXeXwXiXpXpXpXpXpXpXpXpXtXtXpX=X>X@XR.I i dXdXdX",
"dXdXdXi I T.uX0XwXpX8X5XiXiXaXpXpXiXyX4XwXiXiX^./././.I r dXdXdX",
"dXdXdXq w 9 H.P.^.*X3X<X>XiXiXiXpX1X1X>XwXiXuX:XOXU.U s 9 dXdXdX",
"dXdXdXy t b l C v B ^ /.3X-X-X-XW.:X:X3X~.K.D.N S z F d 0 dXdXdX",
"dXdX9 ,X[.+.*. .k.G S Z k x k l Z A Z l l S Y [ ] } Y U.<X@ dXdX",
"dXdXw eX).A k.k.Y l.%.=.z.s.s.p.p.8.z.O.+. .[ D ' ] k.).0X9 dXdX",
"dXdXw - ! pX=XP.C ] ;.i.1.:.>.>.q.q.g.q.g.6._ &.' A 9Xb.; w dXdX",
"dXdX8 n.L 1 @ 1 j 9.<.2.,.1.<.,.<.1.<.1.g.9.#.*.G B o L B.@ dXdX",
"dXdX; |._.n.r p z w.r.g.0.q.:.,.:.>.:.w.t.7.+.l.N $ b.Z.'.$ dXdX",
"dXdXdX< 9 w 8 + 2 o.-.8.h.:.:.1.:.w.8.8.` J V X p M + * , dXdXdX",
"dXdXdX% ( qX8 O + 2 j h c v.d.M.m.) ) h h 6 = # t f 0XJ.; dXdXdX",
"dXdXdX@ ~ =XqXOXH.f 5 .       . X 5 o O   p d H.OX9X>X/ & dXdXdX",
"dXdXdXdXdX$ # / ,XyXuXyX;X= = % * 4X+XuXuXuXuX=XG.$ 9 dXdXdXdXdX",
"dXdXdXdXdXdXdXdX: a H { z b g o v g h { x S a ; dXdXdXdXdXdXdXdX",
"dXdXdXdXdXdXdXdXdX- 5 b v : t dX8 $ ; v b 6 * dXdXdXdXdXdXdXdXdX",
"dXdXdXdXdXdXdXdXdXdXdX8 e % % dX% $ e 9 8 # dXdXdXdXdXdXdXdXdXdX"
};
