/* XPM */
static char *result[] = {
/* columns rows colors chars-per-pixel */
"32 32 247 2 ",
"   c black",
".  c #060702",
"X  c #0B0101",
"o  c #020409",
"O  c #0D010C",
"+  c #010808",
"@  c #120305",
"#  c #1B0103",
"$  c #13020C",
"%  c #1D010E",
"&  c #11080F",
"*  c #030513",
"=  c #0C0313",
"-  c #030B13",
";  c #0A0B13",
":  c #01031B",
">  c #0B041C",
",  c #030A1B",
"<  c #090A1B",
"1  c #160617",
"2  c #19021D",
"3  c #0A1014",
"4  c #260208",
"5  c #25011A",
"6  c #330217",
"7  c #231119",
"8  c #050326",
"9  c #030B25",
"0  c #090922",
"q  c #060529",
"w  c #090A29",
"e  c #170725",
"r  c #100821",
"t  c #15022B",
"y  c #1C022A",
"u  c #11152C",
"i  c #030731",
"p  c #150831",
"a  c #091336",
"s  c #3B0C2A",
"d  c #3A132A",
"f  c #380C31",
"g  c #351338",
"h  c #1B253D",
"j  c #530816",
"k  c #5B071C",
"l  c #650309",
"z  c #65051A",
"x  c #760618",
"c  c #4C0927",
"v  c #570528",
"b  c #570A36",
"n  c #401031",
"m  c #5A1833",
"M  c #680328",
"N  c #740424",
"B  c #7E122D",
"V  c #67093B",
"C  c #7A0B37",
"Z  c #76183A",
"A  c #5A343A",
"S  c #79263C",
"D  c #37164B",
"F  c #4D1350",
"G  c #6C0A49",
"H  c #781443",
"J  c #582E48",
"K  c #7D4A5D",
"L  c #665E5E",
"P  c #715074",
"I  c #776563",
"U  c #9C0A14",
"Y  c #B1100E",
"T  c #AA061A",
"R  c #B8041B",
"E  c #840826",
"W  c #980828",
"Q  c #92192A",
"!  c #8C0C32",
"~  c #8A0F3A",
"^  c #930D3B",
"/  c #9A0A38",
"(  c #881738",
")  c #941133",
"_  c #A60528",
"`  c #AB042C",
"'  c #A30A2C",
"]  c #B80327",
"[  c #B4032A",
"{  c #AA033C",
"}  c #A20A38",
"|  c #B80134",
" . c #AD1B33",
".. c #E0360D",
"X. c #E8381B",
"o. c #F23619",
"O. c #F33C1E",
"+. c #DD1C33",
"@. c #DB3C24",
"#. c #D63C2B",
"$. c #C92032",
"%. c #DA2A3A",
"&. c #D83D37",
"*. c #E43C22",
"=. c #EB3B22",
"-. c #E93A2A",
";. c #EB3534",
":. c #E53837",
">. c #EB3C35",
",. c #F13B30",
"<. c #D64526",
"1. c #DE4533",
"2. c #E0432F",
"3. c #E84133",
"4. c #881643",
"5. c #9A124E",
"6. c #923D66",
"7. c #E33948",
"8. c #F63E48",
"9. c #92554F",
"0. c #994B59",
"q. c #8E555A",
"w. c #8D4C6D",
"e. c #9D4B6B",
"r. c #A75E6E",
"t. c #97686A",
"y. c #DF404B",
"u. c #D54554",
"i. c #E54151",
"p. c #D6705E",
"a. c #AE8B6D",
"s. c #A88976",
"d. c #A4927C",
"f. c #C7A051",
"g. c #D08E70",
"h. c #CA927D",
"j. c #DFB47F",
"k. c #755889",
"l. c #726C95",
"z. c #745BA8",
"x. c #6A64AA",
"c. c #7E68A7",
"v. c #7378AF",
"b. c #6B67B4",
"n. c #917A91",
"m. c #A47786",
"M. c #844CA7",
"N. c #9776B2",
"B. c #BD7FB8",
"V. c #7E8BC2",
"C. c #9A8882",
"Z. c #A68885",
"A. c #AB978C",
"S. c #AE8C96",
"D. c #B88B93",
"F. c #8785AF",
"G. c #9698AF",
"H. c #878AB9",
"J. c #9584BC",
"K. c #8892B7",
"L. c #A690AC",
"P. c #9CAEBE",
"I. c #A7B1BA",
"U. c #A2B0BD",
"Y. c #AEB3B8",
"T. c #C09E89",
"R. c #F29194",
"E. c #D5A983",
"W. c #C9A29A",
"Q. c #F0AE8F",
"!. c #EEB18F",
"~. c #C9BAAB",
"^. c #E2ADAF",
"/. c #F9B9A7",
"(. c #FBB7B8",
"). c #F9C88E",
"_. c #F9CC9C",
"`. c #FCED98",
"'. c #F1CDAA",
"]. c #EAD0A3",
"[. c #FFE8B9",
"{. c #8B88CC",
"}. c #9589C4",
"|. c #93ABC2",
" X c #97ACC0",
".X c #97ACC1",
"XX c #90AEC9",
"oX c #80B8DB",
"OX c #B2B2DE",
"+X c #9CACE0",
"@X c #9FBFE0",
"#X c #ADB7E6",
"$X c #F2BEF5",
"%X c #BBDCDE",
"&X c #87C1E0",
"*X c #8BC5E1",
"=X c #8EC9E4",
"-X c #92CEE6",
";X c #95D4E8",
":X c #ABC6E4",
">X c #B2CCE7",
",X c #B9D8E0",
"<X c #BAD1E9",
"1X c #BADCE9",
"2X c #B3D0F0",
"3X c #BEDDF2",
"4X c #B9D7F8",
"5X c #BDD3FC",
"6X c #A8E2E3",
"7X c #C8CCDA",
"8X c #FEFBD5",
"9X c #D2CBEA",
"0X c #CAD8E4",
"qX c #C3D7EC",
"wX c #CCDDEF",
"eX c #D4D7E9",
"rX c #C9CCFD",
"tX c #D7CFF8",
"yX c #C5D4F4",
"uX c #C7D8F7",
"iX c #CDDEF0",
"pX c #C4D3FB",
"aX c #CBD2FB",
"sX c #D3D4F8",
"dX c #D7E4F2",
"fX c #D8E5F2",
"gX c #D9ECF8",
"hX c #DBF5F9",
"jX c #ECF2E7",
"kX c #FEF7E8",
"lX c #FDFEED",
"zX c #E7E4F4",
"xX c #E3ECF6",
"cX c #E4EDF6",
"vX c #E4EAFC",
"bX c #FFE5FF",
"nX c #FEEEFE",
"mX c #E8FBFF",
"MX c #EDFCFE",
"NX c #FAFAF3",
"BX c #FCFBF3",
"VX c #F0F5FA",
"CX c #F3F4FF",
"ZX c #FEF5FD",
"AX c #F4FCFD",
"SX c #FCFCFD",
"DX c white",
/* pixels */
"DXiXVXVXiXqXiXxX<XVXiXcXcXfX- , w 8 9 o cXcXiXdXfXqXiXiXiXfXfXwX",
"fX>XDX<X<XVXiXfXqXqX:XiXe 6 ' %.;.:. .B 2 0 , >XqXqXiX<X>XqXcXqX",
"cXiX<XfXqX<XfXqXcXiXVX4 Q U >.*.O.o.O.X.O.T ) 4 O 3 qX:XqX@XiXqX",
"<X<XVXcXwXfXVXiXqXqX2 Z &.2.X.O.=.*.2.<.,.8.7.' ~ b 2 q w <XVXfX",
"iX>XcXVXY.DXfXqX5 c / ` 2.<.<.Y R ] %.#.*.-.;.] | } ^ / C y qXcX",
"<XqXfXqXfXqX1 @ J Z W _ <.@.:.R | { ' U >.=.=.>.[ { } W Z y iXcX",
"iXiXfXcXiX. L A.BXZXZX(.g.p.[ ` ` { E l W 2...,.] ` W N c r fXcX",
"iXfXfXqXcX& L.BXnXNXlXlXkXlXnX(.R.) N M l 2.X.;.R [ _ v D > iXfX",
"-XfXqXiXqX> P D.Z.D.h.!.!._.BXkXlXMXOXS.v W T >._ } ) 6 > fXVXcX",
"cX;XiXfX<XfX@ @ q.e.6.e.0.0.0.0.K w , ; s.x x y.W E z 5 < wXqXVX",
"fXDXDXfXfX& A 9.h.Q.'.$ AXBXZ.e.w.x.+XaX, d c l g.s.s.7 1 iXfXP.",
"fXiXiXiXfX; I T._.).].$ a - 8X_.Q.q.~.BXMXr @ a.a.~.NXA.C.= cXiX",
"iXcXqXr w pXyX7XBXkXmXNXeX7X_.g.E.BXNXNXyXP w.d.8XlXBXA.C.: cX<X",
"cX>XiX0 9 3XgXAXZXnXbXCXSXAXyXuXyXyX1X%XAX4XuXr s.a.Z.Z.m.r VXiX",
"cX XfX- a V.{.}.k.k.n.l.b.b.AXZXzXx.,XjXZXeX2X5X8 a 9 , ; iX X:X",
"cXfX3 v.{.aXvXNX'.].'.].SXMXx.b.b.5XvXnXZXSXAXpX5XpXaXh o VXfXqX",
"cXfXi OXaXAXAXCXSXNXlXBXAXAXSX0X0X1XhXMXAX%X%X  sX#XK.a a iXcXiX",
"qXiXu v.H.ZXZXCXlXAXCXuXAXSXSXG.F.}.0XAXSXBXAXhX4XOXN.D t qXVX>X",
"VX-XcXr q c.N.J.9XaXsXpXSXBXnXnXnXrX5X2X1XNXSX5XV.k.F y t fXcXfX",
"iXiXfX&X>Xd f D M.c.F.aX3X1X0XG.K.uXpXrX}.z.M.F f 7 . cX>XqXfX>X",
"VX<XqXcXVXqXm.r.m b m c c j l z M N N M G F F F @ . X cXfXVXfXI.",
"fXiXcXVX>XcXJ b 4.w.J.9X( _ u.G G 5.| $.5.$XtXt 4.z X qXcXDXiXcX",
"qXcXqXfXfX>XS v ZXvXaXx./ R >.! G G C Z k SXmX% i.$.M & , iX;XiX",
"VX*XqX<XcXc C 5.n.XX9XS @.O.o.1.#.:.W.6XCXO u 4 u.+._ 4 + fXqXU.",
"iXVX=XiXfX< L.bXpX#XB.) 3.=.o.X.-.&.m i > t.t.1 } | ( 4 . VXfXVX",
"iXqXfXiXcX$ n F k.P b ( y.>.X.2.:.T z 5 r./.^.p Z H F - + >XfXiX",
"fXcXqX<XiX. q.T.X @ X [.E  .! ~ 4.! ^ 4.% > p 8 $ L mXh 0 VXfXcX",
"cXfXVXqX<XVX. # h.j.`.f.4 O O @ # # $ o o o : l.CXgX4Xh < qXfXiX",
"|.fXcXVXqXVX<XcX& - , , t y k.9XeXCXCXmXAXmXmXyX, < > qXfXcXU.VX",
"fXiXfX<XfXDXiXiXiXfX<X2 v V 4.M b f y 8 a , * * cX>X.XfX>XcXfXqX",
"cXdXcXcXcXcXcXiXiXcXqXVXs s g 2 e w w : w cX>XfXcXqXfXVXiXqXfXfX",
"iXcXqXcXVXqXcXqX<XqXiXcXcXDX- 9 , 9 , , VXcXqXfXfX>XoX:XfX<XcXiX"
};
