/* XPM */
static char *result[] = {
/* columns rows colors chars-per-pixel */
"32 32 229 2 ",
"   c #0B0101",
".  c #020409",
"X  c #0D010C",
"o  c #010808",
"O  c #060702",
"+  c #120305",
"@  c #1B0103",
"#  c #13020C",
"$  c #1D010E",
"%  c #11080F",
"&  c #030513",
"*  c #0C0313",
"=  c #0A0B13",
"-  c #01031B",
";  c #0B041C",
":  c #030A1B",
">  c #090A1B",
",  c #030B13",
"<  c #19021D",
"1  c #160617",
"2  c #0A1014",
"3  c #260208",
"4  c #25011A",
"5  c #330217",
"6  c #231119",
"7  c #050326",
"8  c #030B25",
"9  c #090922",
"0  c #090A29",
"q  c #060529",
"w  c #100821",
"e  c #15022B",
"r  c #1C022A",
"t  c #170725",
"y  c #030731",
"u  c #150831",
"i  c #091336",
"p  c #11152C",
"a  c #3B0C2A",
"s  c #3A132A",
"d  c #351338",
"f  c #380C31",
"g  c #1B253D",
"h  c #5B071C",
"j  c #530816",
"k  c #650309",
"l  c #65051A",
"z  c #760618",
"x  c #4C0927",
"c  c #570528",
"v  c #570A36",
"b  c #401031",
"n  c #5A1833",
"m  c #47073D",
"M  c #680328",
"N  c #740424",
"B  c #67093B",
"V  c #7A0B37",
"C  c #76183A",
"Z  c #7E122D",
"A  c #5A343A",
"S  c #79263C",
"D  c #37164B",
"F  c #4D1350",
"G  c #6C0A49",
"H  c #781443",
"J  c #582E48",
"K  c #665E5E",
"L  c #7D4A5D",
"P  c #7F655C",
"I  c #715074",
"U  c #776563",
"Y  c #9C0A14",
"T  c #B1100E",
"R  c #AA061A",
"E  c #B8041B",
"W  c #840826",
"Q  c #980828",
"!  c #8C0C32",
"~  c #8A0F3A",
"^  c #930D3B",
"/  c #9A0A38",
"(  c #881738",
")  c #941133",
"_  c #92192A",
"`  c #AB042C",
"'  c #A30A2C",
"]  c #A60528",
"[  c #B4032A",
"{  c #B80327",
"}  c #AA033C",
"|  c #A20A38",
" . c #B80134",
".. c #AD1B33",
"X. c #DE391B",
"o. c #E8381B",
"O. c #F33C1E",
"+. c #F23619",
"@. c #E0360D",
"#. c #DD1C33",
"$. c #DB3C24",
"%. c #D63C2B",
"&. c #DA2A3A",
"*. c #D83D37",
"=. c #C92032",
"-. c #E43C22",
";. c #EB3B22",
":. c #E93A2A",
">. c #EB3534",
",. c #EB3C35",
"<. c #E53837",
"1. c #F13B30",
"2. c #D64526",
"3. c #DE4533",
"4. c #E0432F",
"5. c #E84133",
"6. c #F5402C",
"7. c #881643",
"8. c #9A124E",
"9. c #923D66",
"0. c #E33948",
"q. c #F63E48",
"w. c #994B59",
"e. c #8E555A",
"r. c #92554F",
"t. c #9D4B6B",
"y. c #8D4C6D",
"u. c #A75E6E",
"i. c #97686A",
"p. c #967F7E",
"a. c #D54554",
"s. c #DF404B",
"d. c #E54151",
"f. c #D6705E",
"g. c #A88976",
"h. c #A4927C",
"j. c #AE8B6D",
"k. c #C7A051",
"l. c #CA927D",
"z. c #D08E70",
"x. c #DFB47F",
"c. c #755889",
"v. c #726C95",
"b. c #745BA8",
"n. c #6A64AA",
"m. c #7E68A7",
"M. c #6B67B4",
"N. c #7378AF",
"B. c #A25F81",
"V. c #917A91",
"C. c #A47786",
"Z. c #844CA7",
"A. c #9776B2",
"S. c #BD7FB8",
"D. c #7E8BC2",
"F. c #9A8882",
"G. c #A68885",
"H. c #AB978C",
"J. c #AE8C96",
"K. c #B88B93",
"L. c #8785AF",
"P. c #9698AF",
"I. c #878AB9",
"U. c #9584BC",
"Y. c #8892B7",
"T. c #A690AC",
"R. c #ABACAF",
"E. c #C09E89",
"W. c #F29194",
"Q. c #C9A29A",
"!. c #D5A983",
"~. c #F0AE8F",
"^. c #EEB18F",
"/. c #C9BAAB",
"(. c #F9B9A7",
"). c #FBB7B8",
"_. c #E2ADAF",
"`. c #F9CC9C",
"'. c #F9C88E",
"]. c #FCED98",
"[. c #EAD0A3",
"{. c #F1CDAA",
"}. c #FFE8B9",
"|. c #9589C4",
" X c #8B88CC",
".X c #90AEC9",
"XX c #B2B2DE",
"oX c #9CACE0",
"OX c #ADB7E6",
"+X c #CCBDE1",
"@X c #F2BEF5",
"#X c #BBDCDE",
"$X c #BADCE9",
"%X c #B9D8E0",
"&X c #BEDDF2",
"*X c #BDD3FC",
"=X c #B9D7F8",
"-X c #B3D0F0",
";X c #A8E2E3",
":X c #C8CCDA",
">X c #FEFBD5",
",X c #D2CBEA",
"<X c #CAD8E4",
"1X c #D4D7E9",
"2X c #C9CCFD",
"3X c #D7CFF8",
"4X c #C5D4F4",
"5X c #C4D3FB",
"6X c #CBD2FB",
"7X c #C7D8F7",
"8X c #D3D4F8",
"9X c #DBF5F9",
"0X c #D9ECF8",
"qX c #FDFEED",
"wX c #FEF7E8",
"eX c #E4EAFC",
"rX c #E7E4F4",
"tX c #FEEEFE",
"yX c #FFE5FF",
"uX c #EDFCFE",
"iX c #E8FBFF",
"pX c #FCFBF3",
"aX c #F3F4FF",
"sX c #FEF5FD",
"dX c #F4FCFD",
"fX c #FCFCFD",
"gX c #FAFAF3",
"hX c #ECF2E7",
"jX c None",
/* pixels */
"jXjXjXjXjXjXjXjXjXjXjXjXjXjX, : 0 7 8 . jXjXjXjXjXjXjXjXjXjXjXjX",
"jXjXjXjXjXjXjXjXjXjXjXjXt 5 ' &.>.<...Z < 9 : jXjXjXjXjXjXjXjXjX",
"jXjXjXjXjXjXjXjXjXjXjX3 _ Y ,.-.O.+.O.o.O.R ) 3 X 2 jXjXjXjXjXjX",
"jXjXjXjXjXjXjXjXjXjX< C *.4.o.O.;.-.4.2.1.q.0.' ~ v < q 0 jXjXjX",
"jXjXjXjXjXjXjXjX4 x / ` 4.2.2.T E { &.%.-.:.>.{  .| ^ / V r jXjX",
"jXjXjXjXjXjX1 + J C Q ] 2.$.<.E  .} ' Y ,.;.;.,.[ } | Q C r jXjX",
"jXjXjXjXjXO K H.pXsXsX).z.f.[ ` ` } W k Q 4.@.1.{ ` Q N x w jXjX",
"jXjXjXjXjX% T.pXtXgXqXqXwXqXtX).W.) N M k 4.o.>.E [ ] c D ; jXjX",
"jXjXjXjXjX; I K.G.K.l.^.^.`.pXwXqXuXXXJ.c Q R ,.] | ) 5 ; jXjXjX",
"jXjXjXjXjXjX+ + e.t.9.t.w.w.w.w.L 0 : = g.z z s.Q W l 4 > jXjXjX",
"jXjXjXjXjX% A r.l.~.{.# dXpXG.t.y.n.oX6X: s x k z.g.g.6 1 jXjXjX",
"jXjXjXjXjX= U E.`.'.[.# i , >X`.~.e./.pXuXw + j.j./.gXH.F.* jXjX",
"jXjXjXw 0 5X4X:XpXwXiXgX1X:X`.z.!.pXgXgX4XI y.h.>XqXpXH.F.- jXjX",
"jXjXjX9 8 &X0XdXsXtXyXaXfXdX4X7X4X4X$X#XdX=X7Xw g.j.G.G.C.w jXjX",
"jXjXjX, i D. X|.c.c.V.v.M.M.dXsXrXn.%XhXsX1X-X*X7 i 8 : = jXjXjX",
"jXjX2 N. X6XeXgX{.[.{.[.fXuXn.M.M.*XeXtXsXfXdX5X*X5X6Xg . jXjXjX",
"jXjXy XX6XdXdXaXfXgXqXpXdXdXfX<X<X$X9XuXdX#X#XfX8XOXY.i i jXjXjX",
"jXjXp N.I.sXsXaXqXdXaX7XdXfXfXP.L.|.<XdXfXpXdX9X=XXXA.D e jXjXjX",
"jXjXjXw q m.A.U.,X6X8X5XfXpXtXtXtX2X*X-X$XgXfX*XD.c.F r e jXjXjX",
"jXjXjXjXjXs f D Z.m.L.6X&X$X<XP.Y.7X5X2X|.b.Z.F f 6 O jXjXjXjXjX",
"jXjXjXjXjXjXC.u.n v n x x j k l M N N M G F F F + O   jXjXjXjXjX",
"jXjXjXjXjXjXJ v 7.y.U.,X( ] a.G G 8. .=.8.@X3Xe 7.l   jXjXjXjXjX",
"jXjXjXjXjXjXS c sXeX6Xn./ E ,.! G G V C h fXiX$ d.=.M % : jXjXjX",
"jXjXjXjXjXx V 8.V..X,XS $.O.+.3.%.<.Q.;XaXX p 3 a.#.] 3 o jXjXjX",
"jXjXjXjXjX> T.yX5XOXS.) 5.;.+.o.:.*.n y ; i.i.1 |  .( 3 O jXjXjX",
"jXjXjXjXjX# b F c.I v ( s.,.o.4.<.R l 4 u.(._.u C H F , o jXjXjX",
"jXjXjXjXjXO e.E.  +   }.W ..! ~ 7.! ^ 7.$ ; u 7 # K iXg 9 jXjXjX",
"jXjXjXjXjXjXO @ l.x.].k.3 X X + @ @ # . . . - v.aX0X=Xg > jXjXjX",
"jXjXjXjXjXjXjXjX% , : : e r c.,X1XaXaXiXdXiXiX4X: > ; jXjXjXjXjX",
"jXjXjXjXjXjXjXjXjXjXjX< c B 7.M v f r 7 i : & & jXjXjXjXjXjXjXjX",
"jXjXjXjXjXjXjXjXjXjXjXjXa a d < t 0 0 - 0 jXjXjXjXjXjXjXjXjXjXjX",
"jXjXjXjXjXjXjXjXjXjXjXjXjXjX, 8 : 8 : : jXjXjXjXjXjXjXjXjXjXjXjX"
};
