/* XPM */
static char *result[] = {
/* columns rows colors chars-per-pixel */
"32 32 245 2 ",
"   c #0B0302",
".  c #050109",
"X  c #060609",
"o  c #1A0201",
"O  c #15030A",
"+  c #020313",
"@  c #0C0315",
"#  c #030A14",
"$  c #0B0A13",
"%  c #04031B",
"&  c #0E041D",
"*  c #030E1A",
"=  c #1B0214",
"-  c #12051A",
";  c #1D021D",
":  c #170A1B",
">  c #081A1B",
",  c #161216",
"<  c #270205",
"1  c #22010C",
"2  c #290418",
"3  c #36041A",
"4  c #050425",
"5  c #0A0726",
"6  c #030923",
"7  c #03032C",
"8  c #09042C",
"9  c #190627",
"0  c #130C22",
"q  c #0B142A",
"w  c #0A0231",
"e  c #000D31",
"r  c #140C31",
"t  c #2B0525",
"y  c #240729",
"u  c #3A0522",
"i  c #2B142E",
"p  c #270535",
"a  c #360733",
"s  c #2C1334",
"d  c #490B09",
"f  c #4F0B15",
"g  c #58061B",
"h  c #6E061B",
"j  c #4B092B",
"k  c #550526",
"l  c #5B022B",
"z  c #4F152A",
"x  c #490833",
"c  c #540838",
"v  c #491234",
"b  c #6A0625",
"n  c #740623",
"m  c #630839",
"M  c #65173D",
"N  c #7A1235",
"B  c #3A395E",
"V  c #353269",
"C  c #4C0E47",
"Z  c #590645",
"A  c #5D1245",
"S  c #570C53",
"D  c #4F1C59",
"F  c #770347",
"G  c #771644",
"H  c #770959",
"J  c #721A52",
"K  c #4D3352",
"L  c #63344C",
"P  c #38416F",
"I  c #4E454E",
"U  c #4A526D",
"Y  c #71566F",
"T  c #5F6167",
"R  c #5C6377",
"E  c #6F6E76",
"W  c #960F1E",
"Q  c #A6071B",
"!  c #B70519",
"~  c #A41A1F",
"^  c #810824",
"/  c #970E29",
"(  c #8B1824",
")  c #95142D",
"_  c #880A38",
"`  c #9B0433",
"'  c #990938",
"]  c #871438",
"[  c #A50827",
"{  c #B40527",
"}  c #A50533",
"|  c #AE0432",
" . c #A80739",
".. c #B70337",
"X. c #A71437",
"o. c #D5191C",
"O. c #CF3117",
"+. c #E9381C",
"@. c #F23518",
"#. c #CE1333",
"$. c #D91C38",
"%. c #C72529",
"&. c #DA3B26",
"*. c #C52D30",
"=. c #D93E37",
"-. c #E9392A",
";. c #F4382A",
":. c #EC3736",
">. c #F63230",
",. c #8F463B",
"<. c #ED411B",
"1. c #D84630",
"2. c #E8442A",
"3. c #F54122",
"4. c #970841",
"5. c #8D1147",
"6. c #A60843",
"7. c #A41445",
"8. c #C41A40",
"9. c #DE3B44",
"0. c #D33E64",
"q. c #91495D",
"w. c #A64157",
"e. c #994A64",
"r. c #865066",
"t. c #A46769",
"y. c #B77C6F",
"u. c #D54242",
"i. c #E64544",
"p. c #AB8D69",
"a. c #AC8374",
"s. c #B38B78",
"d. c #D99E59",
"f. c #CBA358",
"g. c #CA9564",
"h. c #ED8373",
"j. c #F0CD7A",
"k. c #525B85",
"l. c #6C5286",
"z. c #675E96",
"x. c #776B83",
"c. c #6F7589",
"v. c #6A689A",
"b. c #72629D",
"n. c #6E59B1",
"m. c #5B6CB3",
"M. c #6665A8",
"N. c #7D7CA8",
"B. c #6B65B3",
"V. c #917B91",
"C. c #A57292",
"Z. c #8B77AE",
"A. c #997EC9",
"S. c #9C8587",
"D. c #8E8B94",
"F. c #A68789",
"G. c #A88F89",
"H. c #B4A187",
"J. c #8589AC",
"K. c #8A89B8",
"L. c #938DB0",
"P. c #B39FAD",
"I. c #9CAEBE",
"U. c #A7B1BA",
"Y. c #A2B0BD",
"T. c #AEB3B8",
"R. c #D89088",
"E. c #D89494",
"W. c #EE8F85",
"Q. c #F4BA9A",
"!. c #C890A5",
"~. c #D0B8AD",
"^. c #F6B7AC",
"/. c #E7CC98",
"(. c #F6CC96",
"). c #F8F09F",
"_. c #DDC9A3",
"`. c #E6CCA9",
"'. c #FEC4A6",
"]. c #9388C8",
"[. c #8792C3",
"{. c #A784D4",
"}. c #93ABC2",
"|. c #97ACC0",
" X c #97ACC1",
".X c #8CA5DE",
"XX c #80B8DB",
"oX c #AAA9C9",
"OX c #B4B7C8",
"+X c #B3B0CC",
"@X c #9FBFE0",
"#X c #ACB0E1",
"$X c #E9B3C1",
"%X c #AECDD5",
"&X c #8BC5E1",
"*X c #8EC9E4",
"=X c #92CEE6",
"-X c #95D4E8",
";X c #ABC6E4",
":X c #B2CCE7",
">X c #B2CFED",
",X c #BAD1E9",
"<X c #BCDBEF",
"1X c #BACBFD",
"2X c #BAD5F3",
"3X c #BCD4FF",
"4X c #BCDBFE",
"5X c #B3E5EF",
"6X c #CFCCCD",
"7X c #F2DFC8",
"8X c #CCCDE3",
"9X c #D3CEED",
"0X c #C3D7EC",
"qX c #C9D4EA",
"wX c #CCDDEF",
"eX c #D2D0EC",
"rX c #CDDEF0",
"tX c #C6D2FC",
"yX c #C6DAF8",
"uX c #D5D2FE",
"iX c #D0DDFD",
"pX c #E3D4F3",
"aX c #D7E4F2",
"sX c #D8E5F2",
"dX c #D9EAF7",
"fX c #FEECE6",
"gX c #EEF7EA",
"hX c #FDFBE3",
"jX c #F7F7EB",
"kX c #FFF4ED",
"lX c #FEFBEB",
"zX c #E5E7F7",
"xX c #E3ECF6",
"cX c #E4EDF6",
"vX c #FFEBFC",
"bX c #EEFDFF",
"nX c #FFF5F0",
"mX c #F5FAF6",
"MX c #FDFDF4",
"NX c #F0F5FA",
"BX c #F5F5FF",
"VX c #FEF4FE",
"CX c #F4FCFE",
"ZX c #FCFBFE",
"AX c white",
/* pixels */
"AXrXNXNXrX0XrXxX,XNXrXcXcXsX0XO o o < 1 cXcXrXaXsX0XrXrXrXsXsXwX",
"sX:XAX,X,XNXrXsX0X0X;XrXcX9 t ) 9.:.1.N y 5 O :X0X0XrX,X:X0XcX0X",
"cXrX,XsX0X,XsX0XcXrXNXsXr _ ! ;.3.<.+.3.:.*.( 3 = O 0X;X0X@XrX0X",
",X,XNXcXwXsXNXrX0X0XsX3 ( 2.3.@.&.1.+.<.@.>.:...6.' < 2 1 ,XNXsX",
"rX:XcXNXT.AXsX0XrX- c 6.| &.+.:.~ / Q ;.2.+.-.{ ....}  ._ y 0XcX",
",X0XsX0XsX0XrX0XO L N 7.` 1.2.;.! 6.` { 9.&.<.-.#.| } } 5.9 rXcX",
"rXrXsXcXrXsX;XI F.nXMXlX_.p.y.X.} #.} h W O.+.+.%.X.) b v & sXcX",
"rXsXsX0XcX*XX E kXkXlXMXhXhXhXfX^.` 4.l g ~ :.+.%.} ` n v 9 rXsX",
"=XsX0XrX0XrX6 6 - D.F.R.Q.Q.^.ZXVXjXhXa.d h Q -.o.| ' v & sXNXcX",
"cX-XrXsX,Xe 3X+XD.r.Y e.w.w.e.e.q.0 % 5 F.r.g 1.*.) b 0 q wX0XNX",
"sXAXAXsXsX7 v.c.S.mXV.< R.'.'.E.1 jXmXD.@ 2 f d ,.y.R.K 5 rXsXI.",
"sXrXrXrXsX5 z.P.lXO 4 r _.j.j.`.# * . VXY L 9 a.s.s.jX~.S.$ cXrX",
"rXcX0X0X0X4 BX6XH.`.8X4XgXhXlXVXBX%X<X4XiX#XK.V.~.hXMX~.p., cX,X",
"cX:XrX: K L.qXqX8XpXzXCXZXlXnXVXZXZXjXmXL.K.K.r I s.S.G.G.X NXrX",
"cX|.sX6 U 3XM.oXCXmX+Xv.v.v.z.M.B.M.M.ZXbXOXc.J.U * - 8 7 rX|.;X",
"cXsXsX8 k.3X4X.Xm.m.oXfX`.(.(././.lXZXM.M.oXBXZXdX1X[.P e NXsX0X",
"cXsX,X8 V [.tX1XtXVXMXMXMXlXhXlXhXMXCXZXVXZXVXMXCXbX3Xk.5 rXcXrX",
"0XrX|.8 B K.J.].].VXZXCXyXCXCXZXlXMXZXCX<XdXZXCXCXCXL.B - 0XNX:X",
"NX=XcXX 2 j V.+X9XCXCXBXyX>XqXbXBXCXbX5X>X4XyXZ.Z.z.8 & + sXcXsX",
"rXrXsXq p C c j a b.N.K.4XyX<XN.uXyXiX>X].l.c j c C x y q 0XsX:X",
"NX,X% uX!.4.4.4.5.H Z Z C j u z j l g g f Z H `  .4.M Z.tX7 sXU.",
"sXrX5 CXP.g 5.M A ..` F S qXqXCXD D M [ } ` ` h n ' / !.ZX6 rXcX",
"0XcX@ > T ZXeXC.k ' 8.0.m VXZXVXb.VXvX=.>.$.Q X.^ b vXE > # -XrX",
"NX&X# t.L - e p b u.-.9.M qX2X4XM.J ) +.+.%.}  .N x O L C.@ 0XY.",
"rXNX$ $XE.t.; p k :.+.i.m uXtXA.B.vXfX2.>.$.| ] c ; t.R.$X- sXNX",
"rX0XsX: $ * - @ o / o.i.A {.A.A.n.G ) &.! 6.F 1 1 3 : 2 y :XsXrX",
"sXcX0X% R bX+ X .   d d   7X7X@ & W.h.d o O O . : i ZXx.% NXsXcX",
"cXsXNX0 U eXbXOXx.+ . X . g.d.).).f.g.O O 2 a x.OXVX8XR 0 0XsXrX",
"}.sXcXNX0X0 + R eXZXZXCXeX, . X X 6X8XVXCXBXVX9Xc.+ q 0XsXcXY.NX",
"sXrXsX,XsXAXrXrX5 s M ] z t i   i j m N g u s y cX:X XsX:XcXsX0X",
"cXaXcXcXcXcXcXrXrX- 3 l l r w NX= w p l k t & sXcX0XsXNXrX0XsXsX",
"rXcX0XcXNX0XcX0X,X0XrXp 5 7 8 *X* e e 9 y 9 0XsXsX:XXX;XsX,XcXrX"
};
