/* XPM */
static char *result[] = {
/* columns rows colors chars-per-pixel */
"32 32 241 2 ",
"   c black",
".  c #010202",
"X  c #040000",
"o  c #050003",
"O  c #0C0000",
"+  c #01030A",
"@  c #03020B",
"#  c #00000D",
"$  c #0C0009",
"%  c #100102",
"&  c #150000",
"*  c #1C0001",
"=  c #110903",
"-  c #17000A",
";  c #1E000D",
":  c #000015",
">  c #000315",
",  c #050015",
"<  c #0C0017",
"1  c #000E10",
"2  c #00001C",
"3  c #0B011E",
"4  c #120211",
"5  c #280001",
"6  c #200014",
"7  c #280011",
"8  c #330915",
"9  c #000320",
"0  c #020123",
"q  c #0C0124",
"w  c #030B2A",
"e  c #000330",
"r  c #010235",
"t  c #230022",
"y  c #310725",
"u  c #580005",
"i  c #490318",
"p  c #420C19",
"a  c #410A1F",
"s  c #550013",
"d  c #540E17",
"f  c #5B0119",
"g  c #680002",
"h  c #640110",
"j  c #440224",
"k  c #49022E",
"l  c #520121",
"z  c #570925",
"x  c #4E0A39",
"c  c #5C0135",
"v  c #790128",
"b  c #790D2C",
"n  c #61183A",
"m  c #5F0044",
"M  c #461047",
"N  c #5A1B40",
"B  c #4D0A50",
"V  c #730A4C",
"C  c #7F1146",
"Z  c #6D0650",
"A  c #7B2840",
"S  c #490E69",
"D  c #795454",
"F  c #746171",
"G  c #830014",
"H  c #9A0116",
"J  c #A80603",
"K  c #AC010C",
"L  c #AC0014",
"P  c #B30016",
"I  c #B6011E",
"U  c #870224",
"Y  c #860E28",
"T  c #9C0027",
"R  c #9D062A",
"E  c #990E2C",
"W  c #890435",
"Q  c #950931",
"!  c #990238",
"~  c #871833",
"^  c #A90222",
"/  c #AC072C",
"(  c #B30029",
")  c #A70136",
"_  c #B7003A",
"`  c #D93806",
"'  c #EB3805",
"]  c #FB3604",
"[  c #EA3918",
"{  c #F13711",
"}  c #C2003D",
"|  c #DD3821",
" . c #DD3634",
".. c #EA3523",
"X. c #EC382E",
"o. c #F33724",
"O. c #FF3F22",
"+. c #EA3439",
"@. c #F53932",
"#. c #B54628",
"$. c #E7440E",
"%. c #D1452B",
"&. c #DF4735",
"*. c #EA4121",
"=. c #EB4132",
"-. c #900340",
";. c #950441",
":. c #871144",
">. c #A70240",
",. c #B10142",
"<. c #8B2250",
"1. c #DC3945",
"2. c #EB3746",
"3. c #914C4E",
"4. c #8C564C",
"5. c #944B57",
"6. c #80426B",
"7. c #8A506B",
"8. c #A64165",
"9. c #926776",
"0. c #AE626C",
"q. c #DC4244",
"w. c #C54054",
"e. c #D57D6E",
"r. c #B6A35A",
"t. c #9B8D79",
"y. c #A68B6E",
"u. c #BE8A74",
"i. c #B08E7C",
"p. c #D2805D",
"a. c #D79D5B",
"s. c #CA8878",
"d. c #E48F7D",
"f. c #4E5F91",
"g. c #665B87",
"h. c #5A708A",
"j. c #4F6095",
"k. c #6F58B1",
"l. c #5A71A3",
"z. c #6C61A5",
"x. c #6C6BA3",
"c. c #7B61AC",
"v. c #6F64B4",
"b. c #7369B3",
"n. c #7779B8",
"m. c #865E97",
"M. c #84638D",
"N. c #B06081",
"B. c #A37A8C",
"V. c #9D7CB0",
"C. c #AD7AB8",
"Z. c #7C8CB1",
"A. c #A8898A",
"S. c #B88686",
"D. c #B69B8A",
"F. c #A58896",
"G. c #AA9594",
"H. c #8A8CB8",
"J. c #9085B3",
"K. c #BF9DA6",
"L. c #9CAEBE",
"P. c #A7B1BA",
"I. c #A2B0BD",
"U. c #AEB3B8",
"Y. c #E5948E",
"T. c #D89BA0",
"R. c #EEB9AF",
"E. c #F6BBA7",
"W. c #EEB8B5",
"Q. c #FCC893",
"!. c #FDC69D",
"~. c #ECD59E",
"^. c #D8CDAE",
"/. c #EFD0AD",
"(. c #F8CAB0",
"). c #FEEBAC",
"_. c #F8F3A0",
"`. c #878AC6",
"'. c #808FCA",
"]. c #8791CF",
"[. c #9F89D1",
"{. c #A986CF",
"}. c #93ABC2",
"|. c #97ACC0",
" X c #97ACC1",
".X c #80B8DB",
"XX c #9FBFE0",
"oX c #9FBFE1",
"OX c #BDDAD5",
"+X c #87C1E0",
"@X c #8BC5E1",
"#X c #8EC9E4",
"$X c #92CEE6",
"%X c #95D4E8",
"&X c #ABC6E4",
"*X c #B2CCE7",
"=X c #BAD1E9",
"-X c #BAD8EC",
";X c #BDDBED",
":X c #B8CDF9",
">X c #BDD5F4",
",X c #BDDDF7",
"<X c #BDD6FD",
"1X c #E4CAC3",
"2X c #FFFFD4",
"3X c #C6CEEB",
"4X c #DCCBE8",
"5X c #C3D7EC",
"6X c #CBD4EC",
"7X c #CCD8EA",
"8X c #CCDDEF",
"9X c #CCCEF8",
"0X c #C5D5F5",
"qX c #CDDEF0",
"wX c #C4D5FD",
"eX c #C6DBFB",
"rX c #CBD8F8",
"tX c #D8D7F2",
"yX c #F0D3EE",
"uX c #C6E3F9",
"iX c #D7E4F2",
"pX c #D8E5F2",
"aX c #EDFBEF",
"sX c #FEFCE6",
"dX c #FDF4E9",
"fX c #FFF9EE",
"gX c #E3ECF6",
"hX c #E4EDF6",
"jX c #FFECF5",
"kX c #FEEEFF",
"lX c #E6FAFE",
"zX c #EDFDFE",
"xX c #FEF5F4",
"cX c #F5FDF5",
"vX c #FDFCF4",
"bX c #F0F5FA",
"nX c #F6F6FF",
"mX c #FDF5FE",
"MX c #F3FCFE",
"NX c #FDFCFD",
"BX c white",
/* pixels */
"BXqXbXbXqX5XqXgX=XbXqXhXhXpX3 # @ . 1 qXhXhXqXiXpX5XqXqXqXpXpX8X",
"pX*XBX=X=XbXqXpX5X5X&X7 - 6 Y +. .2.T 4 3 hXbX*X5X5XqX=X*X5XhX5X",
"hXqX=XpX5X=XpX5XhX@ $ N A %.| { o...+.E b $ hXoX*X=X5X&X5XXXqX5X",
"=X=XbXhX8XpX+ + ; ;.;.2.X...' $.] ..X.o.+.~ ; &X*X5X5XqXpX=XbXpX",
"qX*XhXbXU.t b >.T T ^ | ..=.| P ( ^  .[ ..( ) ; 4 pXhX5XBXhX5XhX",
"=X5XpX5XpXt Q } _ /  .*.$.` J T ,.L @.*. .L ) C n o bXbXhX5XqXhX",
"qXqXpXhXqXq l >.,.T o.{ =./ v ) ( K ^ e.p.E.jXmXmXB.= pXpXqXpXhX",
"qXpXpX5XhXq j ;.) ^ o.X.1.h s Y Y R.dXfXvXxXNXxXvXMX+ BX5X*XqXpX",
"$XpX5XqX5XqX6 ;.) I @.K H z S.xXxXmXkX/.E./.y.S.S.F.o pX5XpXbXhX",
"hX%XqXpX=XpX2 p u ^ 2.G u A.@ e e 6.7.8.8.3.3.4.D = BXbXhX8X5XbX",
"pXBXBXpXpXbX> A.u.e.g i y 0 0Xx.m.5.t.aXcX% (.d.Y.5.- pXpXqXpXL.",
"pXqXqXqXpX. G.xXvXs.s.* 4 MXmX7.5.E.2X> e + /.Q.!.D.= =XiXpXhXqX",
"qXhX5X5X5X4 A.cXaXsXA.D F ,XzXNXdXa.Q.tX9XvXfXxXjX6X6X> 9 bXhX=X",
"hX*XqXI.qX4 t.y.i.F.e eXrXmX7X;X;X;X-XzXMXMXnXnXnXzXeXe 3 hXbXqX",
"hX|.pXpXiXbXy %   9 wX0XOXNXzXl.f.zXNXc.v.j.n.b.n.].'.w : qX|.&X",
"hXpXpXpX*X5X9 ,X,X,X;XzXMXNXcX<X:Xv.v.nXsX~././.^.vX7XZ.H.3 pX5X",
"hXpX=XBXpX*X9 `.`.0XMX,X;XcXMX:X9XtXmXzXcXcXvXxXxXNXMX9XwX# hXqX",
"5XqX|.hXqXhXe `.`.:XMXNXNXNXMX[.{.J.NXNXzXOXMXfXdXNXmXH.H.# bX*X",
"bX$XhXqX=XqX9 a y J.9XMXMX>X>X-XuXNXvXzXlX;XeX,X>XZ.x.0 0 pXhXpX",
"qXqXpX+X*XpXqX  X z x m.k.J.9X0X0XH.3XwXwX3X{.z.z.c l hX*X5XpX*X",
"bX=X5XhXbX5X=X.   * m S S B M l z k x j z i m B B 9.9.hXpXbXpXP.",
"pXqXhXbX*XhXhX% 5 :.y 3X4XR T ! ! v %.^ :.-XZ.:.W d 5X5XhXBXqXhX",
"5XhX5XpXpX*X  M N #.- nXmXh ! V Z v X.L -.k.9XkXkXs bXhXqXqX%XqX",
"bX@X5X=XhXpXX :.! #.; > + cXyXw.q.q.%.O. .V 4XH.V.W f pXqXpX5XI.",
"qXbX#XqXpX$XX :.Q W 7 0.0.> r 1.O.*.] ..+.;.C.<X<XkX% P.5XbXpXbX",
"qX5XpXqXhXhXO M Z :.4 1XW.N.; E L *.&.+.2.W N m.M.a X bXhX*XpXqX",
"pXhX5X=XqXBX, mXkXo + # < ; :.U H P H ( ^ ).O o O T.X bX5XbXpXhX",
"hXpXbX5X=XbX, 7XrXzXh.2 2 X o o o $ o & & r._.D.K.& 5XbXhX5XpXqX",
"}.pXhXbX5XbX=X: : w 3XMXMXzXzXMXlX3Xg.0 q 0 < - O hXhX5XpXhXI.bX",
"pXqXpX=XpXBXqXqXqXpX> # # 1 o 8 p l <.c k 3 hXBXhX*X XpX*XhXpX5X",
"hXiXhXhXhXhXhXqXqXhX5XbX=Xr r q 3 - j p 8 hX*XpXhX5XpXbXqX5XpXpX",
"qXhX5XhXbX5XhX5X=X5XqXhXhXBX0 2 9 w 9 5XbXhX5XpXpX*X.X&XpX=XhXqX"
};
