/* XPM */
static char *result[] = {
/* columns rows colors chars-per-pixel */
"32 32 223 2 ",
"   c #030100",
".  c #0C0103",
"X  c #0D010B",
"o  c #060808",
"O  c #140002",
"+  c #1C0103",
"@  c #170509",
"#  c #030215",
"$  c #060B12",
"%  c #03041C",
"&  c #0D041C",
"*  c #030B1C",
"=  c #0B0813",
"-  c #140211",
";  c #1D0312",
":  c #14031D",
">  c #190818",
",  c #011617",
"<  c #18110B",
"1  c #220006",
"2  c #2C0005",
"3  c #230115",
"4  c #25041B",
"5  c #2C0018",
"6  c #36111C",
"7  c #000322",
"8  c #030B25",
"9  c #090728",
"0  c #130623",
"q  c #140529",
"w  c #0A132E",
"e  c #030A33",
"r  c #070838",
"t  c #0B0B35",
"y  c #280427",
"u  c #34102A",
"i  c #59000D",
"p  c #4A0A1E",
"a  c #56041A",
"s  c #5B061F",
"d  c #44141F",
"f  c #55161D",
"g  c #640517",
"h  c #680109",
"j  c #460829",
"k  c #530626",
"l  c #431224",
"z  c #58112A",
"x  c #4A0932",
"c  c #5C0538",
"v  c #4F123C",
"b  c #5D123A",
"n  c #78062C",
"m  c #611E3D",
"M  c #781530",
"N  c #5F0046",
"B  c #481749",
"V  c #4E1251",
"C  c #7E1848",
"Z  c #6D0E51",
"A  c #72124D",
"S  c #5A2142",
"D  c #7A2C42",
"F  c #4A1669",
"G  c #785555",
"H  c #7F446B",
"J  c #736170",
"K  c #99061C",
"L  c #82041B",
"P  c #AB0714",
"I  c #AB041B",
"U  c #B2031C",
"Y  c #A70F0A",
"T  c #860929",
"R  c #9B032B",
"E  c #9C0E2E",
"W  c #85162C",
"Q  c #880C38",
"!  c #98093B",
"~  c #941134",
"^  c #981630",
"/  c #861E36",
"(  c #A80827",
")  c #B2012D",
"_  c #B50523",
"`  c #A60539",
"'  c #AB1030",
"]  c #B6003D",
"[  c #D83B0E",
"{  c #FB390C",
"}  c #E93C1E",
"|  c #F13A18",
" . c #EA3B0D",
".. c #C1003F",
"X. c #DC3B26",
"o. c #DC3937",
"O. c #E93828",
"+. c #F33A29",
"@. c #EB3B32",
"#. c #E9373C",
"$. c #F53C35",
"%. c #B4482C",
"&. c #E64616",
"*. c #DE4938",
"=. c #D0472F",
"-. c #E94326",
";. c #FF4127",
":. c #EA4335",
">. c #940C43",
",. c #861846",
"<. c #8F0A42",
"1. c #A60842",
"2. c #B00644",
"3. c #8A2751",
"4. c #DB3C47",
"5. c #EA3A48",
"6. c #904D4F",
"7. c #934C58",
"8. c #8B574D",
"9. c #BC5240",
"0. c #89516B",
"q. c #A54365",
"w. c #916775",
"e. c #AD626C",
"r. c #DB4446",
"t. c #C44255",
"y. c #D17F5D",
"u. c #D47C6E",
"i. c #B5A25A",
"p. c #9A8C78",
"a. c #A58A6E",
"s. c #AF8D7B",
"d. c #BD8973",
"f. c #D69C5B",
"g. c #C98777",
"h. c #E38E7C",
"j. c #4F5F90",
"k. c #665B86",
"l. c #506094",
"z. c #5A6F89",
"x. c #6D669D",
"c. c #6F59AF",
"v. c #5A70A2",
"b. c #6C61A4",
"n. c #6C6BA2",
"m. c #7A61AA",
"M. c #7269B2",
"N. c #7678B7",
"B. c #6F64B3",
"V. c #665FC0",
"C. c #855E96",
"Z. c #83638C",
"A. c #AF6080",
"S. c #A2798B",
"D. c #9C7BAE",
"F. c #AC79B7",
"G. c #7B8BAF",
"H. c #7F8EC9",
"J. c #A78889",
"K. c #B78585",
"L. c #B59A89",
"P. c #A48795",
"I. c #A99493",
"U. c #898BB7",
"Y. c #8F84B2",
"T. c #BE9CA4",
"R. c #D79A9F",
"E. c #E4938D",
"W. c #EDB8AD",
"Q. c #F6BAA5",
"!. c #EDB7B3",
"~. c #FCC792",
"^. c #FDC59C",
"/. c #EBD49D",
"(. c #F8F39F",
"). c #D7CCAC",
"_. c #F8C9AE",
"`. c #EECFAB",
"'. c #FEEAAA",
"]. c #8689C5",
"[. c #8690CE",
"{. c #9E88D0",
"}. c #A885CE",
"|. c #BCD9D4",
" X c #BCDAEC",
".X c #B9D7EB",
"XX c #B7CCF9",
"oX c #BCD4F4",
"OX c #BCD5FD",
"+X c #BCDCF7",
"@X c #B8E2EE",
"#X c #C0CBDD",
"$X c #D0CCDF",
"%X c #E3C9C2",
"&X c #FFFFD3",
"*X c #C5CDEA",
"=X c #DBCAE7",
"-X c #CAD3EB",
";X c #CBD7E9",
":X c #CBCDF8",
">X c #C4D4F5",
",X c #C3D4FD",
"<X c #C5DAFB",
"1X c #CAD7F8",
"2X c #D7D6F2",
"3X c #F0D2ED",
"4X c #C5E2F9",
"5X c #ECFBEE",
"6X c #FEFCE5",
"7X c #FFF9ED",
"8X c #FDF4E8",
"9X c #FEEDFF",
"0X c #FFEBF5",
"qX c #ECFDFE",
"wX c #E5FAFE",
"eX c #FEF5F4",
"rX c #FDFCF4",
"tX c #F6F6FF",
"yX c #FDF5FE",
"uX c #F3FCFE",
"iX c #FDFCFD",
"pX c #F5FDF5",
"aX c None",
/* pixels */
"aXaXaXaXaXaXaXaXaXaXaXaXaXaX0 # = o , aXaXaXaXaXaXaXaXaXaXaXaXaX",
"aXaXaXaXaXaXaXaXaXaXaX5 ; 4 W #.o.5.R > 0 aXaXaXaXaXaXaXaXaXaXaX",
"aXaXaXaXaXaXaXaXaX= - S D =.X.| +.O.#.^ M - aXaXaXaXaXaXaXaXaXaX",
"aXaXaXaXaXaX$ $ 3 >.>.5.@.O. .&.{ O.@.+.#./ 3 aXaXaXaXaXaXaXaXaX",
"aXaXaXaXaXy M 1.R R ( X.O.:.X.U ) ( o.} O.) ` 3 > aXaXaXaXaXaXaX",
"aXaXaXaXaXy ~ ..] ' o.-.&.[ Y R 2.I $.-.o.I ` C m X aXaXaXaXaXaX",
"aXaXaXaXaXq k 1.2.R +.| :.' n ` ) P ( u.y.Q.0XyXyXS.< aXaXaXaXaX",
"aXaXaXaXaXq j >.` ( +.@.4.g a W W W.8X7XrXeXiXeXrXuX$ aXaXaXaXaX",
"aXaXaXaXaXaX4 >.` _ $.P K z K.eXeXyX9X`.Q.`.a.K.K.P.X aXaXaXaXaX",
"aXaXaXaXaXaX7 d i ( 5.L i J.= e e H 0.q.q.6.6.8.G < aXaXaXaXaXaX",
"aXaXaXaXaXaX* J.d.u.h p u 9 >Xn.C.7.p.5XpX@ _.h.E.7.; aXaXaXaXaX",
"aXaXaXaXaXo I.eXrXg.g.1 > uXyX0.7.Q.&X* e $ `.~.^.L.< aXaXaXaXaX",
"aXaXaXaXaX> J.pX5X6XJ.G J +XqXiX8Xf.~.2X:XrX7XeX0X-X-X* 8 aXaXaX",
"aXaXaXaXaX> p.a.s.P.e <X1XyX;X X X X.XqXuXuXtXtXtXqX<Xe 0 aXaXaX",
"aXaXaXaXaXaXu @   8 ,X>X|.iXqXv.j.qXiXm.B.l.N.M.N.[.H.w % aXaXaX",
"aXaXaXaXaXaX8 +X+X+X XqXuXiXpXOXXXB.B.tX6X/.`.`.).rX;XG.U.0 aXaX",
"aXaXaXaXaXaX8 ].].>XuX+X XpXuXXX:X2XyXqXpXpXrXeXeXiXuX:X,X# aXaX",
"aXaXaXaXaXaXe ].].XXuXiXiXiXuX{.}.Y.iXiXqX|.uX7X8XiXyXU.U.# aXaX",
"aXaXaXaXaXaX8 l u Y.:XuXuXoXoX.X4XiXrXqXwX X<X+XoXG.n.9 9 aXaXaX",
"aXaXaXaXaXaXaX  . z v C.c.Y.:X>X>XU.*X,X,X*X}.b.b.c k aXaXaXaXaX",
"aXaXaXaXaXaXaXo   1 N F F V B k z x v j z p N V V w.w.aXaXaXaXaX",
"aXaXaXaXaXaXaX@ 2 ,.u *X=XE R ! ! n =.( ,..XG.,.Q f aXaXaXaXaXaX",
"aXaXaXaXaXaX  B S %.; tXyXg ! A Z n @.I <.c.:X9X9Xa aXaXaXaXaXaX",
"aXaXaXaXaXaX. ,.! %.3 * $ pX3Xt.r.r.=.;.o.A =XU.D.Q s aXaXaXaXaX",
"aXaXaXaXaXaX. ,.~ Q 5 e.e.* r 4.;.-.{ O.#.>.F.OXOX9X@ aXaXaXaXaX",
"aXaXaXaXaXaXO B Z ,.> %X!.A.3 ^ I -.*.#.5.Q S C.Z.l . aXaXaXaXaX",
"aXaXaXaXaXaX& yX9XX $ # : 3 ,.T K U K ) ( '.O X O R.. aXaXaXaXaX",
"aXaXaXaXaXaX& ;X1XqXz.7 7 . X X X - X + + i.(.L.T.+ aXaXaXaXaXaX",
"aXaXaXaXaXaXaX% % w *XuXuXqXqXuXwX*Xk.9 q 9 : ; O aXaXaXaXaXaXaX",
"aXaXaXaXaXaXaXaXaXaX* # # , X 6 d k 3.c x 0 aXaXaXaXaXaXaXaXaXaX",
"aXaXaXaXaXaXaXaXaXaXaXaXaXr r q 0 ; j d 6 aXaXaXaXaXaXaXaXaXaXaX",
"aXaXaXaXaXaXaXaXaXaXaXaXaXaX9 7 8 w 8 aXaXaXaXaXaXaXaXaXaXaXaXaX"
};
