/* XPM */
static char *result[] = {
/* columns rows colors chars-per-pixel */
"32 32 241 2 ",
"   c #0C0007",
".  c #130002",
"X  c #15020C",
"o  c #190309",
"O  c #040214",
"+  c #0D0215",
"@  c #030C15",
"#  c #0B0B15",
"$  c #04051D",
"%  c #0C051C",
"&  c #020B1C",
"*  c #0A091C",
"=  c #130214",
"-  c #120A13",
";  c #1C0815",
":  c #14051C",
">  c #1C021D",
",  c #140B1D",
"<  c #021218",
"1  c #18101B",
"2  c #220005",
"3  c #25020F",
"4  c #390109",
"5  c #260618",
"6  c #360619",
"7  c #39101A",
"8  c #030623",
"9  c #0C0727",
"0  c #020E22",
"q  c #080B24",
"w  c #03042A",
"e  c #030C2A",
"r  c #1A0925",
"t  c #12062C",
"y  c #001125",
"u  c #101129",
"i  c #0A0634",
"p  c #280625",
"a  c #380426",
"s  c #220732",
"d  c #3B0933",
"f  c #381332",
"g  c #4C0507",
"h  c #45041E",
"j  c #580219",
"k  c #66000B",
"l  c #670718",
"z  c #6C021C",
"x  c #72041B",
"c  c #7D141A",
"v  c #4A092A",
"b  c #550423",
"n  c #481621",
"m  c #420D31",
"M  c #56093D",
"N  c #471234",
"B  c #581A37",
"V  c #620227",
"C  c #6C0225",
"Z  c #650429",
"A  c #69072B",
"S  c #730327",
"D  c #7E1227",
"F  c #690635",
"G  c #7A0338",
"H  c #761639",
"J  c #562632",
"K  c #743232",
"L  c #36375B",
"P  c #36366B",
"I  c #4A0E40",
"U  c #6E094C",
"Y  c #7A1445",
"T  c #443B4C",
"R  c #3D435D",
"E  c #5A4C59",
"W  c #6C615F",
"Q  c #495766",
"!  c #664E7B",
"~  c #556378",
"^  c #64727E",
"/  c #900D1B",
"(  c #A80818",
")  c #A4101E",
"_  c #8B0629",
"`  c #9C0829",
"'  c #811C2D",
"]  c #8A0E33",
"[  c #8E0D3C",
"{  c #940C33",
"}  c #9C0639",
"|  c #871637",
" . c #9D133B",
".. c #A40424",
"X. c #A2052D",
"o. c #A80528",
"O. c #AA0B2A",
"+. c #A81928",
"@. c #B8122B",
"#. c #A50333",
"$. c #A40732",
"%. c #B60239",
"&. c #B42B2F",
"*. c #CC1F1D",
"=. c #E62C11",
"-. c #E93718",
";. c #E63C1C",
":. c #EB3C1C",
">. c #F13714",
",. c #F1351B",
"<. c #F33C1C",
"1. c #C91D28",
"2. c #D2192E",
"3. c #C81F30",
"4. c #C92328",
"5. c #D72C29",
"6. c #D83B33",
"7. c #E63526",
"8. c #E63A24",
"9. c #EB3C23",
"0. c #E33D29",
"q. c #F43829",
"w. c #E43B33",
"e. c #E53835",
"r. c #F33A34",
"t. c #ED411D",
"y. c #DC422B",
"u. c #C2473F",
"i. c #DE4435",
"p. c #DA433B",
"a. c #E94427",
"s. c #F24229",
"d. c #E74130",
"f. c #900B4B",
"g. c #981844",
"h. c #AB0943",
"j. c #D63A45",
"k. c #D73A52",
"l. c #92464C",
"z. c #B94A43",
"x. c #8F6B77",
"c. c #B47474",
"v. c #CD4F43",
"b. c #DC4942",
"n. c #F0425C",
"m. c #C47170",
"M. c #A88463",
"N. c #A88B77",
"B. c #C48870",
"V. c #DB8E7F",
"C. c #46588B",
"Z. c #775E94",
"A. c #5B6483",
"S. c #686A88",
"D. c #736688",
"F. c #727490",
"G. c #7B7AA9",
"H. c #8E7894",
"J. c #9A7EAA",
"K. c #7F838D",
"L. c #7E8EAC",
"P. c #7E93BE",
"I. c #9A8885",
"U. c #959294",
"Y. c #A98A86",
"T. c #A68D96",
"R. c #8986AA",
"E. c #9484AD",
"W. c #9193AE",
"Q. c #8787B9",
"!. c #BD9BA8",
"~. c #9CAEBE",
"^. c #A7B1BA",
"/. c #A2B0BD",
"(. c #E69098",
"). c #C0BA9F",
"_. c #F3BD9F",
"`. c #C488A3",
"'. c #D2B7A5",
"]. c #FBAEA0",
"[. c #EDBCA1",
"{. c #F5B6AA",
"}. c #EEB2B2",
"|. c #D4CDBE",
" X c #979FC3",
".X c #93ABC2",
"XX c #97ACC0",
"oX c #97ACC1",
"OX c #80B8DB",
"+X c #B2B0CB",
"@X c #9FBFE0",
"#X c #9FBFE1",
"$X c #BBD4DB",
"%X c #8BC5E1",
"&X c #8EC9E4",
"*X c #92CEE6",
"=X c #95D4E8",
"-X c #ABC6E4",
";X c #B2CCE7",
":X c #BAD1E9",
">X c #BFD5EB",
",X c #BDD3F5",
"<X c #C0C1DA",
"1X c #D2C8E7",
"2X c #C3D7EC",
"3X c #C6D8E9",
"4X c #CCDDEF",
"5X c #D5D5E2",
"6X c #D2DBE6",
"7X c #CDCEFA",
"8X c #D4CBF4",
"9X c #C2D3F2",
"0X c #C3DBF2",
"qX c #CDDEF0",
"wX c #C7D6FF",
"eX c #CAD7F9",
"rX c #D3D9FA",
"tX c #D0E0EC",
"yX c #D7E4F2",
"uX c #D8E5F2",
"iX c #D9E8F7",
"pX c #E1E3EC",
"aX c #FFF4EC",
"sX c #FDF8E8",
"dX c #E6E9F7",
"fX c #E3ECF6",
"gX c #E4EDF6",
"hX c #FAECFF",
"jX c #ECF5FF",
"kX c #E6FDFF",
"lX c #EAF9F8",
"zX c #EDFDFF",
"xX c #FEF3F3",
"cX c #F6FCF4",
"vX c #FDFEF5",
"bX c #F0F5FA",
"nX c #F3F3FD",
"mX c #FEF5FD",
"MX c #F4FDFE",
"NX c #FDFDFD",
"BX c white",
/* pixels */
"BXqXbXbXqX2XqXfX:XbXqXgX, + - r - :XuXqXgXgXqXyXuX2XqXqXqXuXuX4X",
"uX;XBX:X:XbXqXuX2X9 r a H 6.y.i.X.a : qXqXgXbX;X2X2XqX:X;X2XgX2X",
"gXqX:XuX2X:Xo o 4  .4.t.<.<.>.,.7.( g.5 uX%XgX#X;X:X2X-X2X@XqX2X",
":X:XbX+ : 5 | {  .k.6.8.>.,.q.q.:.;.6.| > r uX-X;X2X2XqXuX:XbXuX",
"qX;Xt Y [ { #.O.( q.,.a.7.O.` ..0.=.r.} h.A X gXgXuXgX2XBXgX2XgX",
":X2Xs [ o.O.#.2.:.<.r.n...#.` ( e.0.p.) { H J 3 qXgXbXbXgX2XqXgX",
"qXqX8 A ( %.#.1.-.;.1...z #.%.3.%.m.B.].sXxXxXT.E r gXuXuXqXuXgX",
"qXuX* f C #.#.1.9.6.+.j b | | }.aXxXvXxXvXxXvXNXK.& :XBX2X;XqXuX",
"*XuX2XO v f.%.2.w.) x n Y.xXxXxXsX'.[._.M.Y.T.: * $ bXuX2XuXbXgX",
"gX=XqX$ p Z  .@.i.k l.Y.3 N v M h n 7 ; O i w S.L t BXbXgX4X2XbX",
"uXBXBX% T N.c.l.l j 1 < W.tX1XmXNXNXNXzX0X9XeXMX<XJ.* uXuXqXuX~.",
"uXqX+ Y.).sXM.N.N.u S.0XkXMXMXcXvXvXvXNXjXjX9X9XiXMXu :XyXuXgXqX",
"qXgX$ U.).sXsX|.U.S. X>X3XMXMXMXvXvXvXMX5XiXzX0XiXzX8 qXbXbXgX:X",
"gX;X* I.T.Y.N.E i ,XdXNXNXNXNXvXvXNXNXNXNXdX3X3X0X>XL.R * gXbXqX",
"gXXXuXO < y & E W.hXmXNXNXNXvXvXNXMXNXNXNXMXMXzXkXkX,XA.% qXXX-X",
"gXuXuX% L L.rXpXcXMXMXMXNXcXNXMXMXMXMXMXMXMXMXzXiXwX,XA.9 bXuX2X",
"gXuX:Xe C.wXnXmXcXlXzXMXNXNXNXNXNXNXNXNXvXvXNX3X9X,XP.P i qXgXqX",
"2XqXXXi P L.mXjXzXNXdXiXMXMXcXNXNXMXnXtXzXMXMXE.Q.Q.Q.P t 2XbX;X",
"bX*XgXw e 0 D.H.E.1X7XwX9XMXMXMXNXeXeX9XzXMXmX8X+XJ.I s 0 uXgXuX",
"qXqXuXy r b z V v N ! Q.7X5X5X5XU.8X8X7XR.G.Z.M A l F d q 2XuX;X",
"bX:X0 0X`.X.%.} f.G A C k x k z C Z C z z A U [ ` { U J.wX@ uX^.",
"uXqXe lX!.Z f.f.U h.#.@.j.i.i.y.y.6.j...X.} [ S _ ` f.!.jX0 qXgX",
"2XgXe - W NX3XH.V ` *.t.<.;.:.:.9.9.s.9.s.2.( $._ Z hXx.: e =XqX",
"bX%X8 c.K 1 @ 1 g 5.,.>.-.<.,.-.,.<.,.<.s.5.o.%.G N o K m.@ 2X/.",
"qXbX: {.(.c.t p l 0.q.s.8.9.;.-.;.:.;.0.w.4.X.h.M % x.V._.% uXbX",
"qX2XuX< 0 e 8 + 2 ' &.6.d.;.;.<.;.0.6.6.) D B X p m + # ; ;XuXqX",
"uXgX2X& ^ kX8 O + 2 g j c z.u.b.v./ / j j 6 = $ r f jXF.: bXuXgX",
"gXuXbX@ Q 3XkX+XD.f 5 .       . X 5 o O   p d D.+XhX9X~ * 2XuXqX",
".XuXgXbX2X% $ ~ 0XnXmXnX6X= = & # tX$XmXmXmXmX3XS.% 0 2XuXgX/.bX",
"uXqXuX:XuXBXqXqX> a H ] l b h o v h j ] x A a : gX;XoXuX;XgXuX2X",
"gXyXgXgXgXgXgXqXqX- 5 b v > r bX8 % : v b 6 # uXgX2XuXbXqX2XuXuX",
"qXgX2XgXbX2XgX2X:X2XqX8 9 & & &X& % 9 0 8 $ 2XuXuX;XOX-XuX:XgXqX"
};
