/* XPM */
static char *result[] = {
/* columns rows colors chars-per-pixel */
"32 32 230 2 ",
"   c #0B0302",
".  c #050109",
"X  c #060609",
"o  c #1A0201",
"O  c #15030A",
"+  c #020313",
"@  c #0C0315",
"#  c #030A14",
"$  c #0B0A13",
"%  c #04031B",
"&  c #0E041D",
"*  c #030E1A",
"=  c #1B0214",
"-  c #12051A",
";  c #1D021D",
":  c #170A1B",
">  c #081A1B",
",  c #161216",
"<  c #22010C",
"1  c #270205",
"2  c #290418",
"3  c #36041A",
"4  c #3B1112",
"5  c #050425",
"6  c #030923",
"7  c #03032C",
"8  c #09042C",
"9  c #0A0726",
"0  c #130C22",
"q  c #190627",
"w  c #0B142A",
"e  c #000D31",
"r  c #0A0231",
"t  c #140C31",
"y  c #2B0525",
"u  c #240729",
"i  c #3A0522",
"p  c #2B142E",
"a  c #270535",
"s  c #360733",
"d  c #2C1334",
"f  c #490B09",
"g  c #58061B",
"h  c #4F0B15",
"j  c #6E061B",
"k  c #4B092B",
"l  c #5B022B",
"z  c #550526",
"x  c #490833",
"c  c #540838",
"v  c #491234",
"b  c #4F152A",
"n  c #6A0625",
"m  c #740623",
"M  c #630839",
"N  c #65173D",
"B  c #7A1235",
"V  c #58283E",
"C  c #6C3E3F",
"Z  c #3A395E",
"A  c #353269",
"S  c #4C0E47",
"D  c #590645",
"F  c #5D1245",
"G  c #4F1C59",
"H  c #570C53",
"J  c #770347",
"K  c #771644",
"L  c #770959",
"P  c #721A52",
"I  c #4D3352",
"U  c #63344C",
"Y  c #38416F",
"T  c #4E454E",
"R  c #4A526D",
"E  c #71566F",
"W  c #5C6377",
"Q  c #5F6167",
"!  c #6F6E76",
"~  c #960F1E",
"^  c #A6071B",
"/  c #B70519",
"(  c #A41A1F",
")  c #970E29",
"_  c #8B1824",
"`  c #95142D",
"'  c #880A38",
"]  c #9B0433",
"[  c #990938",
"{  c #871438",
"}  c #810824",
"|  c #A50827",
" . c #B40527",
".. c #A50533",
"X. c #AE0432",
"o. c #A80739",
"O. c #B70337",
"+. c #A71437",
"@. c #D5191C",
"#. c #CF3117",
"$. c #E9381C",
"%. c #F23518",
"&. c #D91C38",
"*. c #CE1333",
"=. c #C72529",
"-. c #DA3B26",
";. c #D93E37",
":. c #C52D30",
">. c #E9392A",
",. c #F4382A",
"<. c #EC3736",
"1. c #F63230",
"2. c #8F463B",
"3. c #ED411B",
"4. c #D84630",
"5. c #E8442A",
"6. c #F54122",
"7. c #970841",
"8. c #8D1147",
"9. c #A60843",
"0. c #A41445",
"q. c #C41A40",
"w. c #DE3B44",
"e. c #D33E64",
"r. c #91495D",
"t. c #A64157",
"y. c #994A64",
"u. c #865066",
"i. c #A46769",
"p. c #B77C6F",
"a. c #D54242",
"s. c #E64544",
"d. c #AC8374",
"f. c #B38B78",
"g. c #AB8D69",
"h. c #D99E59",
"j. c #CBA358",
"k. c #CA9564",
"l. c #ED8373",
"z. c #F0CD7A",
"x. c #525B85",
"c. c #675E96",
"v. c #6C5286",
"b. c #776B83",
"n. c #6A689A",
"m. c #72629D",
"M. c #6F7589",
"N. c #6E59B1",
"B. c #5B6CB3",
"V. c #6665A8",
"C. c #7D7CA8",
"Z. c #6B65B3",
"A. c #917B91",
"S. c #A57292",
"D. c #8B77AE",
"F. c #C07FB8",
"G. c #997EC9",
"H. c #9C8587",
"J. c #8E8B94",
"K. c #A68789",
"L. c #BC8982",
"P. c #A88F89",
"I. c #B4A187",
"U. c #8589AC",
"Y. c #8A89B8",
"T. c #938DB0",
"R. c #B39FAD",
"E. c #D89494",
"W. c #D89088",
"Q. c #EE8F85",
"!. c #F4BA9A",
"~. c #C890A5",
"^. c #D0B8AD",
"/. c #F6B7AC",
"(. c #F2B1BF",
"). c #F6CC96",
"_. c #E7CC98",
"`. c #F8F09F",
"'. c #DDC9A3",
"]. c #CDC0B4",
"[. c #E6CCA9",
"{. c #FEC4A6",
"}. c #9388C8",
"|. c #8792C3",
" X c #A784D4",
".X c #8CA5DE",
"XX c #AAA9C9",
"oX c #B4B7C8",
"OX c #B3B0CC",
"+X c #ACB0E1",
"@X c #E9B3C1",
"#X c #BCDBEF",
"$X c #BCCFFA",
"%X c #BACBFD",
"&X c #BCD4FF",
"*X c #BCDBFE",
"=X c #BAD5F3",
"-X c #B2CFED",
";X c #B3E5EF",
":X c #AECDD5",
">X c #CFCCCD",
",X c #F2DFC8",
"<X c #FFF2D6",
"1X c #CCCDE3",
"2X c #D3CEED",
"3X c #C9D4EA",
"4X c #C6D2FC",
"5X c #C6DAF8",
"6X c #D5D2FE",
"7X c #D0DDFD",
"8X c #D2D0EC",
"9X c #E3D4F3",
"0X c #D9EAF7",
"qX c #FEECE6",
"wX c #FDFBE3",
"eX c #FFF4ED",
"rX c #FEFBEB",
"tX c #F7F7EB",
"yX c #E5E7F7",
"uX c #FFEBFC",
"iX c #EEFDFF",
"pX c #FFF5F0",
"aX c #FDFDF4",
"sX c #F5F5FF",
"dX c #FEF4FE",
"fX c #F4FCFE",
"gX c #FCFBFE",
"hX c #F5FAF6",
"jX c #EEF7EA",
"kX c None",
/* pixels */
"kXkXkXkXkXkXkXkXkXkXkXkXkXkXkXO o o 1 < kXkXkXkXkXkXkXkXkXkXkXkX",
"kXkXkXkXkXkXkXkXkXkXkXkXkXq y ` w.<.4.B u 9 O kXkXkXkXkXkXkXkXkX",
"kXkXkXkXkXkXkXkXkXkXkXkXt ' / ,.6.3.$.6.<.:._ 3 = O kXkXkXkXkXkX",
"kXkXkXkXkXkXkXkXkXkXkX3 _ 5.6.%.-.4.$.3.%.1.<.O.9.[ 1 2 < kXkXkX",
"kXkXkXkXkXkXkXkXkX- c 9.X.-.$.<.( ) ^ ,.5.$.>. .O.O...o.' u kXkX",
"kXkXkXkXkXkXkXkXO U B 0.] 4.5.,./ 9.]  .w.-.3.>.*.X.....8.q kXkX",
"kXkXkXkXkXkXkXT K.pXaXrX'.g.p.+...*...j ~ #.$.$.=.+.` n v & kXkX",
"kXkXkXkXkXkXX ! eXeXrXaXwXwXwXqX/.] 7.l g ( <.$.=...] m v q kXkX",
"kXkXkXkXkXkX6 6 - J.K.W.!.!./.gXdXtXwXd.f j ^ >.@.X.[ v & kXkXkX",
"kXkXkXkXkXe &XOXJ.u.E y.t.t.y.y.r.0 % 9 K.u.g 4.:.` n 0 w kXkXkX",
"kXkXkXkXkX7 n.M.H.hXA.1 W.{.{.E.< tXhXJ.@ 2 h f 2.p.W.I 9 kXkXkX",
"kXkXkXkXkX9 c.R.rXO 5 t '.z.z.[.# * . dXE U q d.f.f.tX^.H.$ kXkX",
"kXkXkXkXkX5 sX>XI.[.1X*XjXwXrXdXsX:X#X*X7X+XY.A.^.wXaX^.g., kXkX",
"kXkXkX: I T.3X3X1X9XyXfXgXrXpXdXgXgXtXhXT.Y.Y.t T f.H.P.P.X kXkX",
"kXkXkX6 R &XV.XXfXhXOXn.n.n.c.V.Z.V.V.gXiXoXM.U.R * - 8 7 kXkXkX",
"kXkXkX8 x.&X*X.XB.B.XXqX[.).)._._.rXgXV.V.XXsXgX0X%X|.Y e kXkXkX",
"kXkXkX8 A |.4X%X4XdXaXaXaXrXwXrXwXaXfXgXdXgXdXaXfXiX&Xx.9 kXkXkX",
"kXkXkX8 Z Y.U.}.}.dXgXfX5XfXfXgXrXaXgXfX#X0XgXfXfXfXT.Z - kXkXkX",
"kXkXkXX 2 k A.OX2XfXfXsX5X-X3XiXsXfXiX;X-X*X5XD.D.c.8 & + kXkXkX",
"kXkXkXw a S c k s m.C.Y.*X5X#XC.6X5X7X-X}.v.c k c S x u w kXkXkX",
"kXkX% 6X~.7.7.7.8.L D D S k i b k l g g h D L ] o.7.N D.4X7 kXkX",
"kXkX9 fXR.g 8.N F O.] J H 3X3XfXG G N | ..] ] j m [ ) ~.gX6 kXkX",
"kXkX@ > Q gX8XS.z [ q.e.M dXgXdXm.dXuX;.1.&.^ +.} n uX! > # kXkX",
"kXkX# i.U - e a n a.>.w.N 3X=X*XV.P ` $.$.=...o.B x O U S.@ kXkX",
"kXkX$ @XE.i.; a z <.$.s.M 6X4XG.Z.uXqX5.1.&.X.{ c ; i.W.@X- kXkX",
"kXkXkX: $ * - @ o ) @.s.F  XG.G.N.K ` -./ 9.J < < 3 : 2 u kXkXkX",
"kXkXkX% W iX+ X .   f f   ,X,X@ & Q.l.f o O O . : p gXb.% kXkXkX",
"kXkXkX0 R 8XiXoXb.+ . X . k.h.`.`.j.k.O O 2 s b.oXdX1XW 0 kXkXkX",
"kXkXkXkXkX0 + W 8XgXgXfX8X, . X X >X1XdXfXsXdX2XM.+ w kXkXkXkXkX",
"kXkXkXkXkXkXkXkX9 d N { b y p   p k M B g i d u kXkXkXkXkXkXkXkX",
"kXkXkXkXkXkXkXkXkX- 3 l l t r kX= r a l z y & kXkXkXkXkXkXkXkXkX",
"kXkXkXkXkXkXkXkXkXkXkXa 9 7 8 kX* e e q u q kXkXkXkXkXkXkXkXkXkX"
};
