/* XPM */
static char *cbbab150fe464639c0cd5440db408506xCK3LHBkY07rZ2zv[] = {
/* columns rows colors chars-per-pixel */
"32 32 37 1 ",
"  c #7FB7DA",
". c #96AABF",
"X c #9BACBD",
"o c #A6AFB9",
"O c #A1AEBC",
"+ c #ADB2B7",
"@ c #8AA6C3",
"# c #92A9C1",
"$ c #96AAC0",
"% c #83BCDD",
"& c #84BCDD",
"* c #90B4DB",
"= c #99BBDD",
"- c #9EBEDF",
"; c #9EBEE0",
": c #86C0DF",
"> c #8AC4E0",
", c #8DC8E3",
"< c #91CDE5",
"1 c #94D3E7",
"2 c #99D9EA",
"3 c #A3C1E1",
"4 c #A4C2E2",
"5 c #AAC5E3",
"6 c #ABC6E4",
"7 c #B1CBE6",
"8 c #B9D0E8",
"9 c #C2D6EB",
"0 c #C2D6EC",
"q c #CBDCEE",
"w c #CCDDEF",
"e c #D6E3F2",
"r c #D7E4F2",
"t c #E2EBF6",
"y c #E3ECF6",
"u c #F0F5FA",
"i c white",
/* pixels */
"iwuuw9wt8uwyyr9888rwyywer9wwwrrq",
"r7i88uwr995wyiy9uuwwwyu799w879y9",
"yw8r98r9ywur5euywyy9r>y;78959-w9",
"88uyqruw99r99yr95ryrwwr5799wr8ur",
"w7yu+ir9wyy9w87rwuy8ueyyyry9iy9y",
"89r9r9w998wi:998rriyr=9wwyuuy9wy",
"wwrywr5wwyyyr8ww5w8wrryOywyrrwry",
"wrr9y,uy9uwirui9wyr9rwwyyw8i97wr",
"<r9w9wyrwwr@yyw2e9r75&yrwyur9ruy",
"y1wr8rywyXyrwru988urw9ruu8iuyq9u",
"riirruy79yrw8w9w89w9uytwwy5rrwrX",
"rwwwrryuu0y7<yryrryurrrq7w58eryw",
"wy999u9r9u99yyrrrwy8y9w9yr9wuuy8",
"y7wOw9rww8www8>y8:wwiwrrwwuywyuw",
"y.rreuy4iiwwwwyyuerr8w<wuwrw9w.5",
"yrrr79yirryr9yryw757yyweu7ywwur9",
"yr8ir7yy5uwww3ru8ry98wwr9y99ywyw",
"9w.ywyrry.ywryuu9r8wwriy9yyww9u7",
"u<yw8ww7rur8959w9ww9979wy9uuyryr",
"wwr:7rwi>y88uy4w798wyuwwruyy79r7",
"u89yu98e9ruw7wu9riy9wwyyruyyruro",
"rwyu7yyyryu9y9wruw<wreyy7w99yiwy",
"9y9rr7wy9yr8yy98uyr9rywyuuuyww1w",
"u>98yrw9*98,r9<ewr%rry>iuyurwr9O",
"wu,wr<ur8399wry98ryy9wry<ryo9uru",
"w9rwyy69ywywwryo9w77y9ur7wiuy7rw",
"ry98wii98yrrur9ww88tywyy94wu9ury",
"yru98u985wrwuyi8r7yy89r,wr9uy9rw",
"#ryu9u8yyrryy9wu8r7<yyywyyy9ryOu",
"rwr8riwwwr8yeyO#r9ryyeyiy7$r7yr9",
"yeyyyyywwy9u8iyu98wyyy7ry9ruw9rr",
"wy9yu9y989wyyiy,ryw9uy9rr7 5r8yw"
};
